<svg width="21" height="20" viewBox="0 0 21 20" fill="none" xmlns="http://www.w3.org/2000/svg">
<path d="M18.9358 0L17.3292 17.9979L10.1075 20L2.90571 18.0007L1.30078 0H18.9358Z" fill="#E44D26"/>
<path d="M10.1172 18.4696L15.9527 16.8518L17.3256 1.47168H10.1172V18.4696Z" fill="#F16529"/>
<path d="M6.99478 5.8874H10.1179V3.67969H4.58203L4.63484 4.27197L5.17749 10.3558H10.1179V8.14813H7.19656L6.99478 5.8874ZM7.49235 11.4597H5.27614L5.58541 14.9262L10.1078 16.1815L10.1179 16.1788V13.8818L10.1083 13.8844L7.64955 13.2205L7.49235 11.4597Z" fill="#EBEBEB"/>
<path d="M10.1094 10.3558H12.828L12.5717 13.2191L10.1094 13.8837V16.1805L14.6353 14.9262L14.6685 14.5532L15.1874 8.74097L15.2412 8.14813H10.1094V10.3558ZM10.1094 5.88201V5.8874H15.4421L15.4864 5.39121L15.587 4.27197L15.6398 3.67969H10.1094V5.88201Z" fill="white"/>
</svg>
