<svg width="21" height="20" viewBox="0 0 21 20" fill="none" xmlns="http://www.w3.org/2000/svg">
<g clip-path="url(#clip0_15_82)">
<g clip-path="url(#clip1_15_82)">
<path d="M20.5 -0.5H0.5V19.5H20.5V-0.5Z" fill="#F7DF1E"/>
<path d="M13.9345 15.1249C14.3374 15.7827 14.8615 16.2662 15.7885 16.2662C16.5672 16.2662 17.0647 15.877 17.0647 15.3392C17.0647 14.6947 16.5536 14.4665 15.6964 14.0916L15.2266 13.89C13.8704 13.3122 12.9694 12.5884 12.9694 11.0582C12.9694 9.6487 14.0434 8.57568 15.7218 8.57568C16.9167 8.57568 17.7758 8.99156 18.3948 10.0804L16.9313 11.0201C16.6091 10.4424 16.2615 10.2147 15.7218 10.2147C15.1713 10.2147 14.8225 10.5639 14.8225 11.0201C14.8225 11.5839 15.1717 11.8122 15.978 12.1614L16.4478 12.3627C18.0447 13.0474 18.9463 13.7455 18.9463 15.315C18.9463 17.0071 17.6171 17.9341 15.832 17.9341C14.0866 17.9341 12.959 17.1024 12.4072 16.0122L13.9345 15.1249ZM7.29547 15.2877C7.5907 15.8116 7.85928 16.2544 8.50499 16.2544C9.12245 16.2544 9.51197 16.0128 9.51197 15.0735V8.68298H11.3913V15.0989C11.3913 17.0449 10.2504 17.9306 8.58499 17.9306C7.08023 17.9306 6.2088 17.1519 5.76562 16.2139L7.29547 15.2877Z" fill="black"/>
</g>
</g>
<defs>
<clipPath id="clip0_15_82">
<rect width="20" height="20" fill="white" transform="translate(0.5)"/>
</clipPath>
<clipPath id="clip1_15_82">
<rect width="20" height="20" fill="white" transform="translate(0.5 -0.5)"/>
</clipPath>
</defs>
</svg>
