<svg width="21" height="20" viewBox="0 0 21 20" fill="none" xmlns="http://www.w3.org/2000/svg">
<g clip-path="url(#clip0_16_165)">
<g clip-path="url(#clip1_16_165)">
<path fill-rule="evenodd" clip-rule="evenodd" d="M20.0827 4.44764C20.0898 4.47385 20.0934 4.50088 20.0935 4.52803V8.74803C20.0935 8.80219 20.0792 8.85539 20.052 8.90226C20.0249 8.94913 19.9859 8.988 19.9389 9.01495L16.3978 11.0542V15.0961C16.3978 15.2061 16.3393 15.3076 16.2439 15.363L8.85211 19.6192C8.83519 19.6288 8.81673 19.6349 8.79828 19.6415C8.79136 19.6438 8.78482 19.648 8.77751 19.6499C8.72584 19.6636 8.67153 19.6636 8.61985 19.6499C8.6114 19.6476 8.6037 19.643 8.59563 19.6399C8.57871 19.6338 8.56102 19.6284 8.54487 19.6192L1.15458 15.363C1.10763 15.336 1.06862 15.2972 1.04148 15.2503C1.01435 15.2034 1.00004 15.1503 1 15.0961V2.4361C1 2.40841 1.00385 2.38149 1.01077 2.35533C1.01307 2.34649 1.01846 2.33841 1.02153 2.32957C1.0273 2.31341 1.03269 2.29687 1.04114 2.28187C1.04691 2.27187 1.05537 2.2638 1.06229 2.25457C1.07114 2.24226 1.07921 2.22957 1.0896 2.2188C1.09844 2.20995 1.10998 2.20341 1.11997 2.19572C1.13112 2.18649 1.14112 2.17649 1.15381 2.16918L4.84953 0.0411043C4.89632 0.0141738 4.94936 0 5.00335 0C5.05733 0 5.11037 0.0141738 5.15716 0.0411043L8.8525 2.16918H8.85327C8.86557 2.17687 8.87595 2.18649 8.8871 2.19534C8.8971 2.20303 8.90825 2.20995 8.9171 2.21841C8.92786 2.22957 8.93555 2.24226 8.94478 2.25457C8.95132 2.2638 8.96016 2.27187 8.96555 2.28187C8.97439 2.29726 8.97939 2.31341 8.98554 2.32957C8.98862 2.33841 8.994 2.34649 8.99631 2.35572C9.00339 2.38193 9.00701 2.40895 9.00708 2.4361V10.3434L12.0864 8.56995V4.52764C12.0864 4.50072 12.0902 4.47341 12.0972 4.44764C12.0999 4.43841 12.1049 4.43033 12.1079 4.42149C12.1141 4.40533 12.1195 4.3888 12.1279 4.3738C12.1337 4.3638 12.1422 4.35572 12.1487 4.34649C12.1579 4.33418 12.1656 4.32149 12.1764 4.31072C12.1852 4.30187 12.1964 4.29533 12.2064 4.28764C12.2179 4.27841 12.2279 4.26841 12.2402 4.2611L15.9363 2.13303C15.9831 2.10606 16.0361 2.09186 16.0901 2.09186C16.1441 2.09186 16.1972 2.10606 16.2439 2.13303L19.9393 4.2611C19.9524 4.2688 19.9623 4.27841 19.9739 4.28726C19.9835 4.29495 19.9946 4.30187 20.0035 4.31033C20.0143 4.32149 20.022 4.33418 20.0312 4.34649C20.0381 4.35572 20.0466 4.3638 20.0519 4.3738C20.0608 4.3888 20.0658 4.40533 20.0719 4.42149C20.0754 4.43033 20.0804 4.43841 20.0827 4.44764ZM19.4775 8.56995V5.06072L18.1843 5.80533L16.3978 6.83418V10.3434L19.4778 8.56995H19.4775ZM15.7821 14.918V11.4065L14.0248 12.4103L9.00669 15.2749V18.8196L15.7821 14.918ZM1.61602 2.9688V14.918L8.39067 18.8192V15.2753L4.85146 13.2719L4.8503 13.2711L4.84876 13.2703C4.83684 13.2634 4.82685 13.2534 4.8157 13.2449C4.80608 13.2373 4.79493 13.2311 4.78647 13.2226L4.7857 13.2215C4.7757 13.2119 4.76878 13.1999 4.76032 13.1892C4.75263 13.1788 4.7434 13.1699 4.73725 13.1592L4.73687 13.158C4.72995 13.1465 4.72572 13.1326 4.72072 13.1196C4.71572 13.108 4.70918 13.0973 4.7061 13.0849C4.70226 13.0703 4.70149 13.0546 4.69995 13.0396C4.69841 13.028 4.69534 13.0165 4.69534 13.0049V13.0042V4.74226L2.90919 3.71303L1.61602 2.9688ZM5.00373 0.663412L1.9248 2.4361L5.00296 4.2088L8.08151 2.43572L5.00296 0.663412H5.00373ZM6.60492 11.7265L8.39106 10.698V2.9688L7.09788 3.71341L5.31136 4.74226V12.4715L6.60492 11.7265ZM16.0901 2.75533L13.0116 4.52803L16.0901 6.30072L19.1683 4.52764L16.0901 2.75533ZM15.7821 6.83418L13.9956 5.80533L12.7024 5.06072V8.56995L14.4886 9.59841L15.7821 10.3434V6.83418ZM8.6983 14.7423L13.2138 12.1638L15.471 10.8753L12.3948 9.1038L8.85288 11.1434L5.62475 13.0023L8.6983 14.7423Z" fill="#FF2D20"/>
</g>
</g>
<defs>
<clipPath id="clip0_16_165">
<rect width="20" height="20" fill="white" transform="translate(0.5)"/>
</clipPath>
<clipPath id="clip1_16_165">
<rect width="19.2265" height="20" fill="white" transform="translate(1)"/>
</clipPath>
</defs>
</svg>
