<svg width="21" height="20" viewBox="0 0 21 20" fill="none" xmlns="http://www.w3.org/2000/svg">
<g clip-path="url(#clip0_16_175)">
<g clip-path="url(#clip1_16_175)">
<path fill-rule="evenodd" clip-rule="evenodd" d="M12.09 0.320801C11.9533 0.320801 11.8263 0.350118 11.709 0.389206C11.9582 0.555334 12.0949 0.77521 12.1633 1.0244C12.1682 1.0586 12.178 1.08303 12.1829 1.11724C12.1878 1.14655 12.1926 1.17587 12.1926 1.20519C12.2122 1.63516 12.0803 1.68891 11.9875 1.94299C11.8458 2.27036 11.8849 2.62216 12.0558 2.90555C12.0705 2.93975 12.09 2.97884 12.1145 3.01305C11.9288 1.77686 12.9595 1.59119 13.15 1.20519C13.1647 0.868045 12.8862 0.643284 12.6664 0.486928C12.4564 0.35989 12.2659 0.320801 12.09 0.320801ZM13.6434 0.599309C13.6238 0.711689 13.6385 0.682373 13.6336 0.741006C13.6287 0.780094 13.6287 0.828957 13.6238 0.868045C13.6141 0.907134 13.6043 0.946222 13.5896 0.985313C13.5799 1.0244 13.5652 1.06349 13.5506 1.10258C13.531 1.14167 13.5164 1.17587 13.4968 1.21496C13.4822 1.23451 13.4724 1.25405 13.4578 1.27359C13.448 1.28825 13.4382 1.30291 13.4284 1.31757C13.404 1.35177 13.3796 1.38597 13.3552 1.41529C13.3259 1.44461 13.3014 1.47881 13.2673 1.50324V1.50813C13.2379 1.53256 13.2086 1.56188 13.1744 1.58631C13.0719 1.66449 12.9546 1.72312 12.8472 1.79641C12.813 1.82084 12.7788 1.84039 12.7495 1.8697C12.7153 1.89413 12.686 1.91856 12.6567 1.94788C12.6225 1.9772 12.5981 2.00652 12.5687 2.04072C12.5443 2.07004 12.515 2.10424 12.4955 2.13844C12.4711 2.17264 12.4466 2.20685 12.4271 2.24105C12.4076 2.28014 12.3929 2.31434 12.3734 2.35343C12.3587 2.39252 12.3441 2.42672 12.3343 2.46581C12.3196 2.50978 12.3099 2.54887 12.3001 2.58796C12.2952 2.60751 12.2952 2.63194 12.2903 2.65148C12.2854 2.67103 12.2854 2.69057 12.2806 2.71011C12.2806 2.7492 12.2757 2.79318 12.2757 2.83227C12.2757 2.86158 12.2757 2.8909 12.2806 2.92022C12.2806 2.95931 12.2855 2.99839 12.2952 3.04237C12.3001 3.08146 12.3099 3.12055 12.3197 3.15964C12.3343 3.19873 12.3441 3.23781 12.3587 3.2769C12.3685 3.30133 12.3831 3.32576 12.3929 3.34531L11.2695 2.91044C11.079 2.8567 10.8933 2.80784 10.7028 2.76386C10.6003 2.73943 10.4977 2.715 10.3951 2.69057C10.102 2.63194 9.80407 2.58796 9.50611 2.55865C9.49634 2.55865 9.49145 2.55375 9.48168 2.55375C9.1886 2.52444 8.90041 2.50978 8.60733 2.50978C8.39241 2.50978 8.17748 2.51954 7.96744 2.53421C7.66948 2.55376 7.37152 2.59284 7.07356 2.6417C7.00029 2.65147 6.92702 2.66613 6.85375 2.68079C6.70233 2.71011 6.55579 2.74431 6.41413 2.77851C6.34086 2.79807 6.26759 2.8176 6.19432 2.83715C6.12106 2.86646 6.05267 2.90067 5.98428 2.92998C5.93055 2.95441 5.87682 2.97884 5.82309 3.00328C5.81333 3.00817 5.80355 3.00817 5.79867 3.01304C5.74982 3.03747 5.70586 3.05701 5.6619 3.08145C5.64725 3.08634 5.63748 3.09121 5.62771 3.0961C5.57398 3.12053 5.52025 3.14985 5.47628 3.17428C5.44209 3.18894 5.4079 3.20848 5.37859 3.22314C5.36394 3.23291 5.3444 3.2427 5.33463 3.24757C5.29067 3.272 5.24671 3.29643 5.20763 3.32087C5.16367 3.3453 5.12459 3.36972 5.0904 3.39415C5.05621 3.41859 5.02201 3.43813 4.99271 3.46256C4.98781 3.46745 4.98294 3.46745 4.97805 3.47233C4.94874 3.49188 4.91455 3.5163 4.88524 3.54073C4.88524 3.54073 4.88035 3.54562 4.87548 3.5505C4.85106 3.57005 4.82663 3.58959 4.80221 3.60913C4.79245 3.61402 4.78267 3.62379 4.7729 3.62868C4.74848 3.64823 4.72406 3.67266 4.69964 3.6922C4.69474 3.70197 4.68498 3.70686 4.68009 3.71175C4.65078 3.74107 4.62147 3.7655 4.59217 3.79482C4.58727 3.79482 4.58727 3.79971 4.5824 3.80458C4.5531 3.82901 4.52379 3.85833 4.49448 3.88765C4.48959 3.89254 4.48959 3.89741 4.48472 3.89741C4.4603 3.92184 4.43587 3.94627 4.41145 3.97559C4.40169 3.98535 4.38703 3.99514 4.37726 4.0049C4.35284 4.03422 4.32353 4.06354 4.29422 4.09285C4.28933 4.10262 4.27957 4.10751 4.27467 4.11728C4.2356 4.15637 4.2014 4.19546 4.16233 4.23455C4.15743 4.23944 4.15257 4.24432 4.14767 4.24921C4.06952 4.33227 3.98648 4.41534 3.89856 4.48863C3.81063 4.56681 3.71783 4.6401 3.62502 4.70362C3.52732 4.77202 3.43452 4.83066 3.33194 4.88929C3.23425 4.94303 3.13167 4.9919 3.02421 5.03587C2.92163 5.07985 2.81417 5.11894 2.70671 5.15314C2.50155 5.19711 2.29151 5.28018 2.11078 5.29484C2.0717 5.29484 2.02774 5.3046 1.98867 5.30949C1.9447 5.31926 1.90563 5.32905 1.86655 5.33881C1.82747 5.35347 1.7884 5.36813 1.74932 5.38279C1.71024 5.39744 1.67117 5.41699 1.63209 5.43653C1.5979 5.46096 1.55882 5.48051 1.52463 5.50494C1.49043 5.52937 1.45624 5.55868 1.42693 5.588C1.39274 5.61243 1.35855 5.64664 1.32924 5.67595C1.29993 5.71016 1.27062 5.73947 1.2462 5.77367C1.22178 5.81276 1.19247 5.84697 1.17293 5.88606C1.14851 5.92026 1.12409 5.95935 1.10455 5.99843C1.085 6.04241 1.06547 6.0815 1.05082 6.12547C1.03616 6.16456 1.02151 6.20854 1.00686 6.25251C0.997094 6.2916 0.987309 6.33069 0.982433 6.36978C0.982433 6.37468 0.977541 6.37954 0.977541 6.38444C0.967779 6.42841 0.967779 6.48705 0.962887 6.51637C0.957994 6.55057 0.953125 6.57988 0.953125 6.61409C0.953125 6.63364 0.953125 6.65806 0.958017 6.67761C0.962909 6.71181 0.967779 6.74113 0.977563 6.77044C0.987325 6.79976 0.99711 6.82907 1.01175 6.85839V6.86328C1.02641 6.8926 1.04595 6.92192 1.06549 6.95124C1.08503 6.98055 1.10456 7.00987 1.12899 7.03919C1.15341 7.06362 1.18272 7.09293 1.21203 7.11736C1.24133 7.14668 1.27064 7.17111 1.30483 7.19554C1.42206 7.29815 1.45137 7.33235 1.6028 7.41053C1.62722 7.42519 1.65164 7.43496 1.68095 7.44962C1.68584 7.44962 1.69071 7.45451 1.6956 7.45451C1.6956 7.46427 1.6956 7.46917 1.7005 7.47894C1.70539 7.51803 1.71515 7.55712 1.72492 7.59621C1.73468 7.64018 1.74935 7.67927 1.764 7.71348C1.77865 7.74279 1.78842 7.77211 1.80308 7.80143C1.80797 7.81119 1.81284 7.82098 1.81773 7.82586C1.83728 7.86494 1.85681 7.89915 1.87634 7.93335C1.90077 7.96755 1.92519 8.00176 1.94961 8.03596C1.97404 8.06528 2.00334 8.09948 2.03265 8.1288C2.06196 8.15811 2.09127 8.18254 2.12546 8.21186C2.12546 8.21186 2.13035 8.21676 2.13522 8.21676C2.16453 8.24119 2.19384 8.26562 2.22315 8.28516C2.25734 8.30959 2.29153 8.32914 2.33061 8.34868C2.3648 8.36823 2.40388 8.38777 2.44295 8.40243C2.47226 8.41709 2.50645 8.42686 2.54065 8.43663C2.54554 8.44153 2.55041 8.44153 2.56019 8.4464C2.57974 8.4513 2.60415 8.45616 2.62369 8.46106C2.60904 8.72491 2.60415 8.9741 2.64324 9.06205C2.6872 9.15977 2.90212 8.86172 3.11705 8.51969C3.08774 8.85683 3.0682 9.2526 3.11705 9.36987C3.17078 9.49202 3.46386 9.11091 3.71786 8.6907C7.18106 7.88938 10.3414 10.2836 10.6736 13.6648C10.6101 13.1371 9.96041 12.8439 9.66245 12.9172C9.51591 13.2788 9.2668 13.7429 8.86626 14.0312C8.90045 13.7087 8.8858 13.3765 8.81741 13.054C8.70995 13.5035 8.49991 13.9237 8.21172 14.2853C7.74768 14.3195 7.28363 14.0947 7.0394 13.7576C7.01986 13.7429 7.01498 13.7136 7.00033 13.6941C6.98567 13.6599 6.97102 13.6257 6.96125 13.5915C6.9466 13.5573 6.93683 13.5231 6.93194 13.4889C6.92705 13.4547 6.92705 13.4205 6.92705 13.3814C6.92705 13.3569 6.92705 13.3325 6.92705 13.3081C6.93194 13.2739 6.9417 13.2397 6.95147 13.2055C6.96123 13.1713 6.97102 13.1371 6.98566 13.1029C7.00521 13.0687 7.01986 13.0345 7.04428 13.0003C7.12732 12.7657 7.12732 12.5752 6.9759 12.4628C6.94659 12.4432 6.91728 12.4286 6.88309 12.4139C6.86354 12.409 6.83912 12.3993 6.81959 12.3944C6.80493 12.3895 6.79517 12.3846 6.78051 12.3797C6.74632 12.3699 6.71212 12.3602 6.67793 12.3553C6.64374 12.3455 6.60955 12.3406 6.57536 12.3406C6.54116 12.3357 6.50208 12.3309 6.46789 12.3309C6.44347 12.3309 6.41905 12.3357 6.39462 12.3357C6.35555 12.3357 6.32135 12.3406 6.28716 12.3504C6.25297 12.3553 6.21878 12.3602 6.18458 12.37C6.15039 12.3797 6.1162 12.3895 6.08201 12.4042C6.04782 12.4188 6.01851 12.4335 5.98431 12.4481C5.95501 12.4628 5.9257 12.4823 5.89151 12.497C4.75339 13.2397 5.43235 14.9791 6.20901 15.4824C5.91593 15.5362 5.61797 15.5997 5.53493 15.6632C5.53004 15.6681 5.52517 15.673 5.52517 15.673C5.73521 15.8 5.95502 15.9075 6.18459 16.0003C6.49721 16.1029 6.82936 16.1958 6.9759 16.2349V16.2397C7.38133 16.3228 7.79164 16.3521 8.20683 16.3277C10.3707 16.1762 12.1438 14.5296 12.4662 12.3602C12.476 12.4042 12.4858 12.4432 12.4955 12.4872C12.5102 12.5752 12.5297 12.668 12.5395 12.7608V12.7657C12.5493 12.8097 12.5541 12.8537 12.559 12.8928V12.9123C12.5639 12.9563 12.5688 13.0003 12.5688 13.0394C12.5737 13.0931 12.5786 13.1469 12.5786 13.2006V13.2788C12.5786 13.3032 12.5835 13.3325 12.5835 13.357C12.5835 13.3863 12.5786 13.4156 12.5786 13.4449V13.5133C12.5786 13.5475 12.5737 13.5768 12.5737 13.611C12.5737 13.6306 12.5737 13.6501 12.5688 13.6746C12.5688 13.7088 12.5639 13.743 12.5639 13.7821C12.559 13.7967 12.559 13.8114 12.559 13.826C12.5541 13.8651 12.5492 13.8993 12.5443 13.9384C12.5443 13.9531 12.5443 13.9677 12.5394 13.9824C12.5345 14.0313 12.5248 14.0752 12.5199 14.1241V14.129V14.1339C12.5101 14.1779 12.5004 14.2267 12.4906 14.2707V14.2853C12.4808 14.3293 12.471 14.3733 12.4613 14.4173C12.4613 14.4222 12.4564 14.4319 12.4564 14.4368C12.4466 14.4808 12.4368 14.5248 12.4222 14.5688V14.5834C12.4075 14.6323 12.3929 14.6762 12.3831 14.7202C12.3782 14.7251 12.3782 14.73 12.3782 14.73C12.3636 14.7788 12.3489 14.8277 12.3343 14.8766C12.3147 14.9254 12.3001 14.9694 12.2805 15.0183C12.261 15.0671 12.2463 15.116 12.2268 15.16C12.2073 15.2088 12.1877 15.2528 12.1682 15.3017H12.1633C12.1437 15.3456 12.1242 15.3945 12.0998 15.4385C12.0949 15.4531 12.09 15.4629 12.0851 15.4727C12.0802 15.4776 12.0802 15.4824 12.0754 15.4873C11.7579 16.1274 11.289 16.6893 10.7028 17.1291C10.6637 17.1535 10.6246 17.1828 10.5856 17.2121C10.5758 17.2219 10.5611 17.2268 10.5514 17.2366C10.5172 17.261 10.483 17.2854 10.4439 17.3098L10.4586 17.3392H10.4635C10.5318 17.3294 10.6002 17.3196 10.6686 17.3098H10.6735C10.8005 17.2903 10.9275 17.2659 11.0545 17.2414C11.0887 17.2365 11.1278 17.2268 11.162 17.217C11.1864 17.2121 11.2059 17.2072 11.2304 17.2024C11.2645 17.1975 11.2987 17.1877 11.3329 17.1828C11.3622 17.173 11.3915 17.1681 11.4209 17.1584C11.9093 17.0411 12.3831 16.8799 12.8374 16.6893C12.0607 17.7496 11.0203 18.6047 9.80404 19.1666C10.3658 19.1275 10.9275 19.0346 11.4697 18.8783C13.4382 18.2968 15.0941 16.9727 16.0857 15.1893C15.8854 16.318 15.436 17.3929 14.7717 18.331C15.2455 18.0183 15.6802 17.6567 16.0759 17.2463C17.1701 16.103 17.8881 14.6518 18.1323 13.0931C18.2984 13.8651 18.3473 14.6616 18.274 15.4482C21.8007 10.5279 18.5671 5.42683 17.214 4.08315C17.2091 4.07338 17.2043 4.06849 17.2043 4.05872C17.1994 4.06361 17.1994 4.06361 17.1994 4.06848C17.1994 4.06359 17.1994 4.06359 17.1945 4.05872C17.1945 4.11735 17.1896 4.17598 17.1847 4.23461C17.1701 4.347 17.1554 4.45449 17.1359 4.56199C17.1114 4.66948 17.0821 4.77697 17.0528 4.88447C17.0186 4.98707 16.9796 5.09457 16.9356 5.19718C16.8916 5.2949 16.8428 5.39751 16.7891 5.49523C16.7353 5.58807 16.6767 5.68579 16.6132 5.77374C16.5497 5.86658 16.4813 5.95452 16.4129 6.03759C16.3397 6.12554 16.2615 6.20372 16.1834 6.28189C16.1345 6.32587 16.0906 6.36496 16.0417 6.40404C16.0026 6.43825 15.9684 6.46757 15.9294 6.50177C15.8414 6.57017 15.7535 6.63369 15.6558 6.69233C15.563 6.75096 15.4653 6.80959 15.3676 6.85845C15.2651 6.90732 15.1625 6.95129 15.0599 6.99527C14.9573 7.03435 14.8499 7.06856 14.7424 7.09787C14.6349 7.12719 14.5226 7.15162 14.4151 7.17116C14.3028 7.19072 14.1904 7.20048 14.083 7.21025C14.0048 7.21515 13.9267 7.22002 13.8485 7.22002C13.7362 7.22002 13.6238 7.21025 13.5164 7.20047C13.404 7.1907 13.2917 7.17603 13.1842 7.1516C13.0719 7.13205 12.9644 7.10274 12.8569 7.06854H12.852C12.9595 7.05878 13.067 7.04899 13.1744 7.02945C13.2868 7.0099 13.3942 6.98548 13.5017 6.95616C13.6092 6.92684 13.7166 6.89264 13.8192 6.85355C13.9267 6.81446 14.0292 6.7656 14.1269 6.71674C14.2295 6.66788 14.3223 6.61413 14.42 6.5555C14.5128 6.49198 14.6056 6.42846 14.6935 6.36005C14.7815 6.29165 14.8645 6.21836 14.9427 6.14018C15.0257 6.06689 15.099 5.98382 15.1722 5.90076C15.2455 5.81281 15.3139 5.72486 15.3774 5.63691C15.3872 5.62225 15.3969 5.60271 15.4067 5.58805C15.4555 5.50987 15.5044 5.4317 15.5484 5.35352C15.6021 5.25579 15.6509 5.15807 15.6949 5.05547C15.7389 4.95286 15.7779 4.85025 15.8121 4.74275C15.8463 4.64014 15.8707 4.53265 15.8952 4.42516C15.9147 4.31278 15.9342 4.20528 15.944 4.09779C15.9538 3.98541 15.9636 3.87303 15.9636 3.76553C15.9636 3.68736 15.9587 3.60918 15.9538 3.531C15.944 3.41862 15.9294 3.31112 15.9147 3.20363C15.8952 3.09125 15.8708 2.98376 15.8414 2.87626C15.8073 2.77365 15.7731 2.66616 15.734 2.56355C15.6949 2.46094 15.6461 2.35833 15.5972 2.26061C15.5435 2.16289 15.4898 2.06517 15.4311 1.97233C15.3676 1.8795 15.3041 1.79155 15.2358 1.7036C15.1625 1.62053 15.0892 1.53747 15.0111 1.4544C14.972 1.41532 14.928 1.37134 14.8841 1.33225C14.6642 1.16124 14.4347 0.999996 14.2051 0.853414C14.1709 0.833862 14.1416 0.819211 14.1074 0.804551C13.9462 0.701945 13.7948 0.648169 13.6434 0.599309Z" fill="#E0234E"/>
</g>
</g>
<defs>
<clipPath id="clip0_16_175">
<rect width="20" height="20" fill="white" transform="translate(0.5)"/>
</clipPath>
<clipPath id="clip1_16_175">
<rect width="20" height="19.3258" fill="white" transform="translate(0.5)"/>
</clipPath>
</defs>
</svg>
