<svg width="21" height="20" viewBox="0 0 21 20" fill="none" xmlns="http://www.w3.org/2000/svg">
<g clip-path="url(#clip0_16_154)">
<g clip-path="url(#clip1_16_154)">
<path d="M11.8958 7.10367L11.2114 8.28886L8.87064 4.23453L1.68496 16.679H6.55014C6.55014 17.3335 7.08077 17.8642 7.73533 17.8642H1.68496C1.26157 17.8642 0.870385 17.6382 0.658728 17.2715C0.44707 16.9048 0.447092 16.453 0.658785 16.0864L7.84446 3.64194C8.05617 3.27523 8.44744 3.04932 8.87088 3.04932C9.29432 3.04932 9.6856 3.27523 9.8973 3.64194L11.8958 7.10367Z" fill="#00C58E"/>
<path d="M17.0834 16.0862L12.5807 8.2887L11.8962 7.10352L11.2118 8.2887L6.70957 16.0862C6.49787 16.4529 6.49785 16.9046 6.70951 17.2713C6.92117 17.638 7.31235 17.864 7.73574 17.864H16.0557C16.4792 17.864 16.8706 17.6382 17.0823 17.2715C17.2941 16.9048 17.2941 16.453 17.0824 16.0862H17.0834ZM7.73574 16.6788L11.8962 9.47389L16.0557 16.6788L7.73574 16.6788Z" fill="#2F495E"/>
<path d="M20.301 17.2714C20.0893 17.638 19.6981 17.864 19.2748 17.864H16.054C16.7086 17.864 17.2392 17.3333 17.2392 16.6788H19.2723L13.5034 6.68717L12.579 8.28865L11.8945 7.10347L12.4772 6.09458C12.689 5.72786 13.0802 5.50195 13.5037 5.50195C13.9271 5.50195 14.3184 5.72786 14.5301 6.09458L20.301 16.0862C20.5127 16.4529 20.5127 16.9047 20.301 17.2714Z" fill="#108775"/>
</g>
</g>
<defs>
<clipPath id="clip0_16_154">
<rect width="20" height="20" fill="white" transform="translate(0.5)"/>
</clipPath>
<clipPath id="clip1_16_154">
<rect width="20" height="14.9" fill="white" transform="translate(0.5 3)"/>
</clipPath>
</defs>
</svg>
