<svg width="21" height="20" viewBox="0 0 21 20" fill="none" xmlns="http://www.w3.org/2000/svg">
<g clip-path="url(#clip0_16_218)">
<g clip-path="url(#clip1_16_218)">
<mask id="mask0_16_218" style="mask-type:luminance" maskUnits="userSpaceOnUse" x="0" y="5" width="21" height="11">
<path d="M0.78125 10.3939C0.78125 13.2174 5.13259 15.5063 10.5 15.5063C15.8675 15.5063 20.2188 13.2174 20.2188 10.3939C20.2188 7.57044 15.8675 5.28146 10.5 5.28146C5.13259 5.28146 0.78125 7.57044 0.78125 10.3939Z" fill="white"/>
</mask>
<g mask="url(#mask0_16_218)">
<path d="M0.78125 10.3939C0.78125 13.2174 5.13259 15.5063 10.5 15.5063C15.8675 15.5063 20.2188 13.2174 20.2188 10.3939C20.2188 7.57044 15.8675 5.28146 10.5 5.28146C5.13259 5.28146 0.78125 7.57044 0.78125 10.3939Z" fill="url(#paint0_radial_16_218)"/>
</g>
<mask id="mask1_16_218" style="mask-type:luminance" maskUnits="userSpaceOnUse" x="0" y="4" width="21" height="13">
<path d="M0.375 4.6992H20.6224V16.0884H0.375V4.6992Z" fill="white"/>
</mask>
<g mask="url(#mask1_16_218)">
<path d="M10.4993 15.1265C15.6571 15.1265 19.8384 13.0075 19.8384 10.3936C19.8384 7.77974 15.6571 5.66072 10.4993 5.66072C5.3415 5.66072 1.16016 7.77974 1.16016 10.3936C1.16016 13.0075 5.3415 15.1265 10.4993 15.1265Z" fill="#777BB3"/>
</g>
<mask id="mask2_16_218" style="mask-type:luminance" maskUnits="userSpaceOnUse" x="0" y="4" width="21" height="13">
<path d="M0.375 4.6992H20.6224V16.0884H0.375V4.6992Z" fill="white"/>
</mask>
<g mask="url(#mask2_16_218)">
<path d="M6.06049 10.9808C6.48459 10.9808 6.8012 10.9026 7.00153 10.7484C7.19972 10.5958 7.3366 10.3314 7.40835 9.96263C7.47524 9.61794 7.44975 9.37725 7.33263 9.24737C7.21287 9.1147 6.95394 9.04742 6.56305 9.04742H5.88529L5.50955 10.9808H6.06049ZM3.84371 13.3623C3.81225 13.3623 3.78237 13.3482 3.76237 13.3239C3.74233 13.2996 3.73421 13.2676 3.74022 13.2367L4.736 8.11333C4.74563 8.0638 4.78904 8.02802 4.83952 8.02802H6.98568C7.66017 8.02802 8.16221 8.21116 8.47777 8.57242C8.79501 8.93557 8.89298 9.4432 8.76893 10.0812C8.71845 10.3411 8.63163 10.5825 8.51088 10.7986C8.38999 11.0149 8.23023 11.2151 8.03595 11.3937C7.80338 11.6114 7.54016 11.7692 7.25431 11.8621C6.97299 11.9537 6.6117 12.0002 6.18049 12.0002H5.31147L5.0633 13.277C5.05367 13.3265 5.01029 13.3623 4.95981 13.3623H3.84371Z" fill="black"/>
<path d="M5.97221 9.15289H6.56304C7.03482 9.15289 7.19869 9.25641 7.25437 9.3181C7.34675 9.42054 7.36419 9.63651 7.30482 9.94265C7.2381 10.2854 7.11443 10.5284 6.9372 10.6648C6.75575 10.8045 6.46075 10.8753 6.06048 10.8753H5.63746L5.97221 9.15289ZM6.98567 7.92258H4.83948C4.73853 7.92258 4.65174 7.99415 4.63247 8.09324L3.63669 13.2166C3.62467 13.2785 3.64091 13.3424 3.68095 13.391C3.72102 13.4397 3.78071 13.4678 3.8437 13.4678H4.95977C5.06076 13.4678 5.14755 13.3962 5.16681 13.2971L5.39839 12.1056H6.18049C6.62277 12.1056 6.99509 12.0574 7.28703 11.9623C7.58726 11.8648 7.86348 11.6994 8.10797 11.4708C8.31016 11.2847 8.47671 11.0759 8.6029 10.8501C8.72913 10.6242 8.81982 10.3722 8.87245 10.1013C9.00304 9.42975 8.89695 8.89199 8.55717 8.50307C8.2207 8.11788 7.69194 7.92258 6.98567 7.92258ZM5.38159 11.0862H6.06048C6.51046 11.0862 6.84563 11.0015 7.06585 10.832C7.28612 10.6624 7.43467 10.3794 7.51186 9.98279C7.58571 9.60203 7.55207 9.33332 7.41094 9.17679C7.26963 9.02026 6.98704 8.94198 6.56304 8.94198H5.79835L5.38159 11.0862ZM6.98567 8.13349C7.63131 8.13349 8.10231 8.30292 8.39835 8.64182C8.69437 8.98072 8.78351 9.45375 8.6654 10.0611C8.61679 10.3112 8.53457 10.54 8.41881 10.7472C8.30292 10.9546 8.15159 11.1442 7.96458 11.3161C7.74172 11.5247 7.49414 11.6733 7.22172 11.7618C6.94929 11.8505 6.60231 11.8947 6.18049 11.8947H5.2245L4.95977 13.2569H3.8437L4.83948 8.13349H6.98567Z" fill="white"/>
<path d="M11.3268 12C11.2953 12 11.2655 11.9859 11.2455 11.9616C11.2254 11.9373 11.2173 11.9054 11.2233 11.8744L11.6638 9.60753C11.7057 9.39195 11.6953 9.23721 11.6347 9.17183C11.5976 9.13186 11.4861 9.06483 11.1564 9.06483H10.3584L9.80455 11.9147C9.79491 11.9642 9.7515 12 9.70102 12H8.59374C8.56225 12 8.5324 11.9859 8.51237 11.9616C8.49233 11.9373 8.48421 11.9053 8.49022 11.8744L9.486 6.75103C9.49563 6.7015 9.53904 6.66572 9.58952 6.66572H10.6968C10.7283 6.66572 10.7581 6.67978 10.7782 6.70407C10.7982 6.72839 10.8063 6.76034 10.8003 6.79128L10.56 8.02785H11.4185C12.0725 8.02785 12.516 8.14315 12.7743 8.38035C13.0376 8.62233 13.1197 9.00925 13.0185 9.53048L12.5552 11.9147C12.5455 11.9642 12.5022 12 12.4517 12H11.3268Z" fill="black"/>
<path d="M10.6968 6.56027H9.58952C9.48852 6.56027 9.40173 6.63184 9.38247 6.73093L8.38669 11.8543C8.37467 11.9162 8.39091 11.9801 8.43098 12.0287C8.47106 12.0773 8.53074 12.1055 8.59374 12.1055H9.70102C9.80197 12.1055 9.8888 12.0339 9.90806 11.9348L10.4453 9.17029H11.1564C11.4855 9.17029 11.5546 9.2406 11.5573 9.24362C11.5773 9.2651 11.6036 9.36458 11.5602 9.58744L11.1197 11.8543C11.1077 11.9162 11.124 11.9801 11.164 12.0287C11.2041 12.0773 11.2638 12.1055 11.3268 12.1055H12.4516C12.5526 12.1055 12.6394 12.0339 12.6587 11.9348L13.122 9.55064C13.2307 8.99098 13.1377 8.57117 12.8456 8.30275C12.5669 8.04681 12.1001 7.92241 11.4185 7.92241H10.6879L10.9038 6.81143C10.9158 6.7496 10.8996 6.68562 10.8595 6.63704C10.8195 6.58843 10.7598 6.56027 10.6968 6.56027ZM10.6968 6.77118L10.4321 8.13332H11.4185C12.0392 8.13332 12.4673 8.24165 12.7029 8.45805C12.9385 8.67458 13.0091 9.02543 12.9149 9.51042L12.4516 11.8946H11.3268L11.7673 9.62769C11.8174 9.36982 11.799 9.19392 11.7119 9.10013C11.6249 9.00635 11.4397 8.95938 11.1564 8.95938H10.2714L9.70102 11.8946H8.59374L9.58952 6.77118H10.6968Z" fill="white"/>
<path d="M14.7714 10.9808C15.1955 10.9808 15.5121 10.9026 15.7125 10.7484C15.9107 10.5958 16.0475 10.3314 16.1193 9.96263C16.1862 9.61794 16.1607 9.37725 16.0436 9.24737C15.9238 9.1147 15.6649 9.04742 15.274 9.04742H14.5962L14.2205 10.9808H14.7714ZM12.5547 13.3623C12.5232 13.3623 12.4933 13.3482 12.4733 13.3239C12.4533 13.2996 12.4451 13.2676 12.4512 13.2367L13.4469 8.11333C13.4566 8.0638 13.5 8.02802 13.5505 8.02802H15.6966C16.3711 8.02802 16.8731 8.21116 17.1887 8.57242C17.506 8.93553 17.6039 9.44316 17.4799 10.0812C17.4294 10.3411 17.3426 10.5825 17.2218 10.7986C17.1009 11.0149 16.9412 11.2151 16.7469 11.3937C16.5143 11.6114 16.2511 11.7692 15.9652 11.8621C15.6839 11.9537 15.3226 12.0002 14.8914 12.0002H14.0224L13.7743 13.277C13.7646 13.3265 13.7213 13.3623 13.6707 13.3623H12.5547Z" fill="black"/>
<path d="M14.6831 9.15289H15.2739C15.7457 9.15289 15.9096 9.25641 15.9653 9.3181C16.0577 9.42054 16.0751 9.63651 16.0157 9.94261C15.949 10.2854 15.8253 10.5284 15.6481 10.6648C15.4666 10.8045 15.1717 10.8753 14.7714 10.8753H14.3484L14.6831 9.15289ZM15.6966 7.92258H13.5504C13.4495 7.92258 13.3627 7.99415 13.3434 8.09324L12.3476 13.2166C12.3356 13.2785 12.3518 13.3424 12.3919 13.391C12.432 13.4397 12.4916 13.4678 12.5546 13.4678H13.6707C13.7717 13.4678 13.8585 13.3962 13.8778 13.2971L14.1093 12.1056H14.8914C15.3337 12.1056 15.706 12.0574 15.9979 11.9623C16.2982 11.8648 16.5745 11.6994 16.8189 11.4707C17.0211 11.2847 17.1876 11.0759 17.3138 10.8501C17.44 10.6242 17.5307 10.3722 17.5833 10.1013C17.7139 9.42971 17.6078 8.89196 17.2681 8.50304C16.9316 8.11788 16.4029 7.92258 15.6966 7.92258ZM14.0925 11.0862H14.7714C15.2214 11.0862 15.5565 11.0015 15.7768 10.832C15.9971 10.6624 16.1456 10.3794 16.2228 9.98279C16.2967 9.60203 16.263 9.33332 16.1218 9.17679C15.9805 9.02026 15.6979 8.94198 15.2739 8.94198H14.5093L14.0925 11.0862ZM15.6966 8.13349C16.3422 8.13349 16.8132 8.30292 17.1093 8.64182C17.4053 8.98072 17.4944 9.45375 17.3763 10.0611C17.3277 10.3112 17.2455 10.54 17.1297 10.7472C17.0138 10.9546 16.8625 11.1442 16.6755 11.3161C16.4526 11.5247 16.205 11.6733 15.9326 11.7618C15.6602 11.8505 15.3132 11.8947 14.8914 11.8947H13.9354L13.6707 13.2569H12.5546L13.5504 8.13349H15.6966Z" fill="white"/>
</g>
</g>
</g>
<defs>
<radialGradient id="paint0_radial_16_218" cx="0" cy="0" r="1" gradientUnits="userSpaceOnUse" gradientTransform="translate(6.61645 7.07884) scale(12.7621)">
<stop stop-color="#AEB2D5"/>
<stop offset="0.3" stop-color="#AEB2D5"/>
<stop offset="0.75" stop-color="#484C89"/>
<stop offset="1" stop-color="#484C89"/>
</radialGradient>
<clipPath id="clip0_16_218">
<rect width="20" height="20" fill="white" transform="translate(0.5)"/>
</clipPath>
<clipPath id="clip1_16_218">
<rect width="20" height="10.7873" fill="white" transform="translate(0.5 5)"/>
</clipPath>
</defs>
</svg>
