<svg width="21" height="20" viewBox="0 0 21 20" fill="none" xmlns="http://www.w3.org/2000/svg">
<g clip-path="url(#clip0_34_1586)">
<path d="M19.993 3.05012L11.0175 19.0999C10.8322 19.4313 10.3561 19.4332 10.168 19.1035L1.01448 3.05167C0.809565 2.69231 1.11685 2.25704 1.52406 2.32983L10.5092 3.93587C10.5665 3.94611 10.6252 3.94601 10.6825 3.93557L19.4797 2.33213C19.8856 2.25816 20.1943 2.69006 19.993 3.05012Z" fill="url(#paint0_linear_34_1586)"/>
<path d="M14.7907 0.22346L8.14858 1.52496C8.03941 1.54635 7.95858 1.63887 7.95199 1.7499L7.54341 8.65056C7.5338 8.8131 7.68307 8.93925 7.8417 8.90266L9.69097 8.47588C9.86399 8.43598 10.0203 8.58837 9.98477 8.76237L9.43536 11.4528C9.39838 11.6338 9.56838 11.7887 9.74521 11.735L10.8874 11.3879C11.0645 11.3342 11.2346 11.4894 11.1972 11.6707L10.324 15.8967C10.2694 16.161 10.621 16.3051 10.7677 16.0785L10.8656 15.9271L16.278 5.12578C16.3686 4.94493 16.2123 4.73871 16.0137 4.77704L14.1102 5.14442C13.9313 5.1789 13.7791 5.01232 13.8296 4.83731L15.072 0.530411C15.1225 0.355106 14.9698 0.188376 14.7907 0.22346Z" fill="url(#paint1_linear_34_1586)"/>
</g>
<defs>
<linearGradient id="paint0_linear_34_1586" x1="0.790994" y1="1.75623" x2="11.9617" y2="16.927" gradientUnits="userSpaceOnUse">
<stop stop-color="#41D1FF"/>
<stop offset="1" stop-color="#BD34FE"/>
</linearGradient>
<linearGradient id="paint1_linear_34_1586" x1="9.99492" y1="0.576815" x2="12.0157" y2="14.4388" gradientUnits="userSpaceOnUse">
<stop stop-color="#FFEA83"/>
<stop offset="0.0833333" stop-color="#FFDD35"/>
<stop offset="1" stop-color="#FFA800"/>
</linearGradient>
<clipPath id="clip0_34_1586">
<rect width="20" height="19.7073" fill="white" transform="translate(0.5 0.146484)"/>
</clipPath>
</defs>
</svg>
