<?xml version="1.0" standalone="no"?>
<!DOCTYPE svg PUBLIC "-//W3C//DTD SVG 20010904//EN"
 "http://www.w3.org/TR/2001/REC-SVG-20010904/DTD/svg10.dtd">
<svg version="1.0" xmlns="http://www.w3.org/2000/svg"
 width="700.000000pt" height="700.000000pt" viewBox="0 0 700.000000 700.000000"
 preserveAspectRatio="xMidYMid meet">
<metadata>
Created by potrace 1.14, written by Peter Selinger 2001-2017
</metadata>
<g transform="translate(0.000000,700.000000) scale(0.100000,-0.100000)"
fill="#000000" stroke="none">
<path d="M175 5402 c-22 -2 -42 -7 -45 -12 -3 -4 -5 -199 -5 -432 l1 -423 522
-3 c287 -1 523 -6 523 -10 1 -4 2 -448 4 -987 1 -539 5 -993 8 -1010 3 -16 8
-51 11 -76 17 -146 111 -365 215 -506 72 -95 194 -212 292 -278 116 -78 285
-148 419 -174 30 -6 66 -14 80 -18 14 -3 169 -8 346 -10 l321 -5 0 435 0 436
-211 3 c-194 3 -214 5 -251 25 -56 30 -104 80 -129 133 -21 45 -21 53 -23
1042 l-2 998 517 2 516 3 1 433 0 432 -30 1 c-149 2 -3050 3 -3080 1z"/>
<path d="M4967 5404 c-1 -1 -42 -4 -92 -7 -450 -30 -825 -276 -1010 -662 -37
-78 -80 -208 -100 -310 -4 -16 -8 -104 -10 -195 -6 -246 20 -384 105 -566 123
-262 374 -472 690 -577 189 -63 248 -69 703 -74 474 -4 478 -5 570 -96 79 -79
102 -132 102 -242 0 -76 -4 -99 -27 -147 -33 -72 -95 -133 -167 -167 l-56 -26
-887 -3 -888 -2 0 -435 0 -435 988 0 c1056 0 1078 1 1245 51 242 72 461 224
604 420 120 164 205 387 230 604 14 124 8 372 -11 465 -70 338 -259 591 -567
757 -96 52 -273 113 -374 128 -11 2 -33 6 -48 9 -78 14 -195 19 -542 20 -435
2 -459 6 -533 78 -129 125 -131 334 -5 453 37 34 118 72 168 79 22 3 409 5
861 6 l821 0 0 435 0 435 -36 1 c-85 1 -1733 4 -1734 3z"/>
</g>
</svg>
