<svg width="80" height="44" viewBox="0 0 80 44" fill="none" xmlns="http://www.w3.org/2000/svg">
<rect width="80" height="44" rx="12" fill="white"/>
<path d="M17.3713 21V13.884H14.6473V12.36H21.7273V13.884H19.0033V21H17.3713Z" fill="#FC444B"/>
<path d="M25.6916 21V12.36H29.3396C29.4236 12.36 29.5356 12.364 29.6756 12.372C29.8196 12.376 29.9476 12.388 30.0596 12.408C30.5756 12.488 30.9976 12.658 31.3256 12.918C31.6576 13.178 31.9016 13.506 32.0576 13.902C32.2136 14.294 32.2916 14.732 32.2916 15.216C32.2916 15.94 32.1116 16.56 31.7516 17.076C31.3916 17.588 30.8276 17.904 30.0596 18.024L29.3396 18.072H27.3236V21H25.6916ZM30.5636 21L28.8596 17.484L30.5396 17.16L32.4116 21H30.5636ZM27.3236 16.548H29.2676C29.3516 16.548 29.4436 16.544 29.5436 16.536C29.6436 16.528 29.7356 16.512 29.8196 16.488C30.0396 16.428 30.2096 16.328 30.3296 16.188C30.4496 16.044 30.5316 15.886 30.5756 15.714C30.6236 15.538 30.6476 15.372 30.6476 15.216C30.6476 15.06 30.6236 14.896 30.5756 14.724C30.5316 14.548 30.4496 14.39 30.3296 14.25C30.2096 14.106 30.0396 14.004 29.8196 13.944C29.7356 13.92 29.6436 13.904 29.5436 13.896C29.4436 13.888 29.3516 13.884 29.2676 13.884H27.3236V16.548ZM36.7306 21V12.36H42.3706V13.884H38.3626V15.732H41.6506V17.256H38.3626V19.476H42.3706V21H36.7306ZM50.0728 21.18C49.4328 21.18 48.8548 21.068 48.3388 20.844C47.8268 20.616 47.4048 20.292 47.0728 19.872C46.7448 19.448 46.5368 18.944 46.4488 18.36L48.1528 18.108C48.2728 18.604 48.5208 18.986 48.8968 19.254C49.2728 19.522 49.7008 19.656 50.1808 19.656C50.4488 19.656 50.7088 19.614 50.9608 19.53C51.2128 19.446 51.4188 19.322 51.5788 19.158C51.7428 18.994 51.8248 18.792 51.8248 18.552C51.8248 18.464 51.8108 18.38 51.7828 18.3C51.7588 18.216 51.7168 18.138 51.6568 18.066C51.5968 17.994 51.5108 17.926 51.3988 17.862C51.2908 17.798 51.1528 17.74 50.9848 17.688L48.7408 17.028C48.5728 16.98 48.3768 16.912 48.1528 16.824C47.9328 16.736 47.7188 16.61 47.5107 16.446C47.3028 16.282 47.1288 16.066 46.9888 15.798C46.8528 15.526 46.7848 15.184 46.7848 14.772C46.7848 14.192 46.9308 13.71 47.2228 13.326C47.5148 12.942 47.9048 12.656 48.3928 12.468C48.8808 12.28 49.4208 12.188 50.0128 12.192C50.6088 12.2 51.1408 12.302 51.6088 12.498C52.0768 12.694 52.4688 12.98 52.7848 13.356C53.1008 13.728 53.3288 14.184 53.4688 14.724L51.7048 15.024C51.6408 14.744 51.5228 14.508 51.3508 14.316C51.1788 14.124 50.9728 13.978 50.7328 13.878C50.4968 13.778 50.2488 13.724 49.9888 13.716C49.7328 13.708 49.4908 13.744 49.2628 13.824C49.0388 13.9 48.8548 14.012 48.7108 14.16C48.5708 14.308 48.5008 14.484 48.5008 14.688C48.5008 14.876 48.5588 15.03 48.6748 15.15C48.7908 15.266 48.9368 15.36 49.1128 15.432C49.2888 15.504 49.4688 15.564 49.6528 15.612L51.1528 16.02C51.3768 16.08 51.6248 16.16 51.8968 16.26C52.1688 16.356 52.4288 16.492 52.6768 16.668C52.9288 16.84 53.1348 17.068 53.2948 17.352C53.4588 17.636 53.5408 17.996 53.5408 18.432C53.5408 18.896 53.4428 19.302 53.2468 19.65C53.0548 19.994 52.7948 20.28 52.4668 20.508C52.1388 20.732 51.7668 20.9 51.3508 21.012C50.9388 21.124 50.5128 21.18 50.0728 21.18ZM57.8595 21V12.36H59.4915V16.344L62.7795 12.36H64.7715L61.1595 16.62L64.9995 21H62.9355L59.4915 17.064V21H57.8595Z" fill="#323232"/>
<path d="M21.0493 33.18C20.4093 33.18 19.8313 33.068 19.3153 32.844C18.8033 32.616 18.3813 32.292 18.0493 31.872C17.7213 31.448 17.5133 30.944 17.4253 30.36L19.1293 30.108C19.2493 30.604 19.4973 30.986 19.8733 31.254C20.2493 31.522 20.6773 31.656 21.1573 31.656C21.4253 31.656 21.6853 31.614 21.9373 31.53C22.1893 31.446 22.3953 31.322 22.5553 31.158C22.7193 30.994 22.8013 30.792 22.8013 30.552C22.8013 30.464 22.7873 30.38 22.7593 30.3C22.7353 30.216 22.6933 30.138 22.6333 30.066C22.5733 29.994 22.4873 29.926 22.3753 29.862C22.2673 29.798 22.1293 29.74 21.9613 29.688L19.7173 29.028C19.5493 28.98 19.3533 28.912 19.1293 28.824C18.9093 28.736 18.6953 28.61 18.4873 28.446C18.2793 28.282 18.1053 28.066 17.9653 27.798C17.8293 27.526 17.7613 27.184 17.7613 26.772C17.7613 26.192 17.9073 25.71 18.1993 25.326C18.4913 24.942 18.8813 24.656 19.3693 24.468C19.8573 24.28 20.3973 24.188 20.9893 24.192C21.5853 24.2 22.1173 24.302 22.5853 24.498C23.0533 24.694 23.4453 24.98 23.7613 25.356C24.0773 25.728 24.3053 26.184 24.4453 26.724L22.6813 27.024C22.6173 26.744 22.4993 26.508 22.3273 26.316C22.1553 26.124 21.9493 25.978 21.7093 25.878C21.4733 25.778 21.2253 25.724 20.9653 25.716C20.7093 25.708 20.4673 25.744 20.2393 25.824C20.0153 25.9 19.8313 26.012 19.6873 26.16C19.5473 26.308 19.4773 26.484 19.4773 26.688C19.4773 26.876 19.5353 27.03 19.6513 27.15C19.7673 27.266 19.9133 27.36 20.0893 27.432C20.2653 27.504 20.4453 27.564 20.6293 27.612L22.1293 28.02C22.3533 28.08 22.6013 28.16 22.8733 28.26C23.1453 28.356 23.4053 28.492 23.6533 28.668C23.9053 28.84 24.1113 29.068 24.2713 29.352C24.4353 29.636 24.5173 29.996 24.5173 30.432C24.5173 30.896 24.4193 31.302 24.2233 31.65C24.0313 31.994 23.7713 32.28 23.4433 32.508C23.1153 32.732 22.7433 32.9 22.3273 33.012C21.9153 33.124 21.4893 33.18 21.0493 33.18Z" fill="#FC444B"/>
<path d="M28.9561 33V24.36H30.5881V33H28.9561ZM37.3909 33V25.884H34.6669V24.36H41.7469V25.884H39.0229V33H37.3909ZM45.7111 33V24.36H51.3511V25.884H47.3431V27.732H50.6311V29.256H47.3431V31.476H51.3511V33H45.7111ZM59.0532 33.18C58.4132 33.18 57.8352 33.068 57.3192 32.844C56.8072 32.616 56.3852 32.292 56.0532 31.872C55.7252 31.448 55.5172 30.944 55.4292 30.36L57.1332 30.108C57.2532 30.604 57.5012 30.986 57.8772 31.254C58.2532 31.522 58.6812 31.656 59.1612 31.656C59.4292 31.656 59.6892 31.614 59.9412 31.53C60.1932 31.446 60.3992 31.322 60.5592 31.158C60.7232 30.994 60.8052 30.792 60.8052 30.552C60.8052 30.464 60.7912 30.38 60.7632 30.3C60.7392 30.216 60.6972 30.138 60.6372 30.066C60.5772 29.994 60.4912 29.926 60.3792 29.862C60.2712 29.798 60.1332 29.74 59.9652 29.688L57.7212 29.028C57.5532 28.98 57.3572 28.912 57.1332 28.824C56.9132 28.736 56.6992 28.61 56.4912 28.446C56.2832 28.282 56.1092 28.066 55.9692 27.798C55.8332 27.526 55.7652 27.184 55.7652 26.772C55.7652 26.192 55.9112 25.71 56.2032 25.326C56.4952 24.942 56.8852 24.656 57.3732 24.468C57.8612 24.28 58.4012 24.188 58.9932 24.192C59.5892 24.2 60.1212 24.302 60.5892 24.498C61.0572 24.694 61.4492 24.98 61.7652 25.356C62.0812 25.728 62.3092 26.184 62.4492 26.724L60.6852 27.024C60.6212 26.744 60.5032 26.508 60.3312 26.316C60.1592 26.124 59.9532 25.978 59.7132 25.878C59.4772 25.778 59.2292 25.724 58.9692 25.716C58.7132 25.708 58.4712 25.744 58.2432 25.824C58.0192 25.9 57.8352 26.012 57.6912 26.16C57.5512 26.308 57.4812 26.484 57.4812 26.688C57.4812 26.876 57.5392 27.03 57.6552 27.15C57.7712 27.266 57.9172 27.36 58.0932 27.432C58.2692 27.504 58.4492 27.564 58.6332 27.612L60.1332 28.02C60.3572 28.08 60.6052 28.16 60.8772 28.26C61.1492 28.356 61.4092 28.492 61.6572 28.668C61.9092 28.84 62.1152 29.068 62.2752 29.352C62.4392 29.636 62.5212 29.996 62.5212 30.432C62.5212 30.896 62.4232 31.302 62.2272 31.65C62.0352 31.994 61.7752 32.28 61.4472 32.508C61.1192 32.732 60.7472 32.9 60.3312 33.012C59.9192 33.124 59.4932 33.18 59.0532 33.18Z" fill="#323232"/>
</svg>
