<svg width="80" height="47" viewBox="0 0 80 47" fill="none" xmlns="http://www.w3.org/2000/svg">
<g clip-path="url(#clip0_82_6107)">
<path d="M12.8565 22.5642C11.5677 22.5642 10.4175 22.2865 9.40629 21.7313C8.41483 21.1563 7.63158 20.3829 7.05653 19.4113C6.50132 18.4398 6.22371 17.3491 6.22371 16.1395V6.35391H0.691406V1.74365H17.3478V6.35391H11.9047V16.5262C11.9047 16.9228 12.0436 17.2599 12.3211 17.5375C12.5988 17.8151 12.9259 17.9539 13.3027 17.9539H15.1468V22.5642H12.8565ZM3.40958 46.1539V41.5437H12.2731C12.6499 41.5437 12.9672 41.4644 13.2249 41.3057C13.5026 41.147 13.7207 40.929 13.8794 40.6513C14.0379 40.3737 14.1172 40.0763 14.1172 39.759C14.1172 39.4219 14.0379 39.1146 13.8794 38.837C13.7207 38.5593 13.5026 38.3413 13.2249 38.1826C12.9672 38.024 12.6499 37.9447 12.2731 37.9447H9.32855C8.07932 37.9447 6.94906 37.6968 5.93778 37.2011C4.9265 36.7054 4.1135 36.0014 3.49881 35.0893C2.90394 34.1573 2.6065 33.037 2.6065 31.7283C2.6065 30.4393 2.89402 29.319 3.46906 28.3672C4.04411 27.3957 4.81744 26.6521 5.78906 26.1365C6.76068 25.6011 7.84137 25.3334 9.03112 25.3334H18.3706V29.9436H9.74496C9.4277 29.9436 9.14017 30.0229 8.8824 30.1816C8.64445 30.3204 8.45607 30.5088 8.31727 30.7467C8.17847 30.9847 8.10906 31.2524 8.10906 31.5498C8.10906 31.8472 8.17847 32.1249 8.31727 32.3826C8.45607 32.6206 8.64445 32.8188 8.8824 32.9775C9.14017 33.1163 9.4277 33.1857 9.74496 33.1857H12.868C14.2362 33.1857 15.4259 33.4434 16.4372 33.959C17.4684 34.4746 18.2615 35.1983 18.8167 36.1303C19.372 37.0424 19.6495 38.1231 19.6495 39.3724C19.6495 40.8001 19.3521 42.0295 18.7573 43.0606C18.1822 44.0719 17.399 44.8452 16.4075 45.3806C15.4359 45.8962 14.3552 46.1539 13.1654 46.1539H3.40958Z" fill="#FF565C"/>
<path d="M16.0586 22.5639V11.8562C16.0586 10.4285 16.4651 9.30817 17.2781 8.49518C18.1109 7.66236 19.261 7.24595 20.7283 7.24595H25.4278V11.2911H22.3047C21.9875 11.2911 21.7297 11.3903 21.5314 11.5885C21.3332 11.7868 21.234 12.0446 21.234 12.3618V22.5639H16.0586ZM36.6258 22.5639C34.9006 22.5639 33.3738 22.2565 32.0453 21.6418C30.7365 21.0272 29.6955 20.1447 28.9222 18.9947C28.1686 17.8446 27.7919 16.4863 27.7919 14.9198C27.7919 13.1749 28.1588 11.7075 28.8924 10.5177C29.6261 9.328 30.5978 8.42577 31.8073 7.81108C33.0169 7.19638 34.3157 6.88902 35.7037 6.88902C37.2107 6.88902 38.5096 7.20629 39.6001 7.84082C40.7106 8.45552 41.5632 9.328 42.1581 10.4583C42.7727 11.5885 43.0801 12.9072 43.0801 14.4142C43.0801 14.7314 43.0603 15.0983 43.0206 15.5147C43.0008 15.9113 42.9512 16.2483 42.8719 16.5259H33.1458C33.2647 16.9622 33.4532 17.329 33.7109 17.6265C33.9885 17.9041 34.3455 18.1123 34.7817 18.2511C35.2378 18.3898 35.7533 18.4593 36.3283 18.4593H41.3847V22.5639H36.6258ZM32.9673 13.5218H38.2022C38.2022 13.2244 38.1625 12.9567 38.0832 12.7188C38.0039 12.461 37.8948 12.2231 37.756 12.0049C37.6173 11.7868 37.4486 11.5985 37.2504 11.4398C37.0521 11.2811 36.8142 11.1622 36.5365 11.0829C36.2589 11.0036 35.9615 10.9639 35.6442 10.9639C35.2278 10.9639 34.861 11.0333 34.5437 11.1721C34.2265 11.3109 33.9588 11.4993 33.7406 11.7372C33.5225 11.9554 33.344 12.2231 33.2053 12.5403C33.0863 12.8377 33.007 13.1649 32.9673 13.5218ZM46.5492 22.5639V18.6972H53.8066C54.0049 18.6972 54.1635 18.6575 54.2825 18.5783C54.4213 18.499 54.5204 18.3998 54.5799 18.2808C54.6592 18.142 54.6989 17.9933 54.6989 17.8347C54.6989 17.676 54.6592 17.5372 54.5799 17.4183C54.5204 17.2795 54.4213 17.1704 54.2825 17.0911C54.1635 17.0118 54.0049 16.9721 53.8066 16.9721H51.3081C50.3166 16.9721 49.4145 16.8134 48.6015 16.4962C47.7884 16.1591 47.1341 15.6336 46.6384 14.9198C46.1625 14.1862 45.9245 13.2442 45.9245 12.0942C45.9245 11.2018 46.1427 10.3888 46.5789 9.65518C47.035 8.92151 47.6397 8.33654 48.3933 7.90031C49.1468 7.46407 49.9796 7.24595 50.8917 7.24595H58.4763V11.0829H51.903C51.6849 11.0829 51.4866 11.1622 51.3081 11.3208C51.1495 11.4795 51.0702 11.6777 51.0702 11.9157C51.0702 12.1338 51.1495 12.3222 51.3081 12.4808C51.4668 12.6395 51.6651 12.7188 51.903 12.7188H54.2825C55.4127 12.7188 56.3943 12.8972 57.2271 13.2542C58.0599 13.5913 58.6945 14.1167 59.1307 14.8306C59.5868 15.5444 59.8148 16.4863 59.8148 17.6562C59.8148 18.5485 59.5868 19.3714 59.1307 20.1249C58.6746 20.8586 58.0599 21.4534 57.2866 21.9095C56.5331 22.3457 55.6804 22.5639 54.7286 22.5639H46.5492ZM63.2012 22.5639V0.851074H68.3468V12.9567H70.0124L73.314 7.24595H79.114L75.0986 13.5218C76.209 13.9977 77.0617 14.7016 77.6565 15.6336C78.2514 16.5457 78.5489 17.6859 78.5489 19.0542V22.5639H73.4032V19.0542C73.4032 18.5585 73.2842 18.1222 73.0463 17.7454C72.8281 17.3687 72.5207 17.0713 72.1242 16.8531C71.7474 16.635 71.3212 16.5259 70.8453 16.5259H68.3468V22.5639H63.2012ZM23.0754 46.1536V30.8357H28.2508V46.1536H23.0754ZM25.6631 29.1701C24.87 29.1701 24.1859 28.8826 23.6108 28.3075C23.0556 27.7324 22.778 27.0583 22.778 26.2849C22.778 25.4918 23.0556 24.8175 23.6108 24.2624C24.1859 23.6873 24.87 23.3998 25.6631 23.3998C26.4562 23.3998 27.1305 23.6873 27.6857 24.2624C28.2607 24.8175 28.5482 25.4918 28.5482 26.2849C28.5482 27.0583 28.2607 27.7324 27.6857 28.3075C27.1305 28.8826 26.4562 29.1701 25.6631 29.1701ZM38.2118 46.1536C36.7643 46.1536 35.6241 45.7472 34.7913 44.9342C33.9783 44.1013 33.5718 42.9711 33.5718 41.5434V27.1772H38.7175V41.1567C38.7175 41.3749 38.7967 41.5632 38.9554 41.7218C39.1141 41.8606 39.3024 41.9301 39.5205 41.9301H42.8518V46.1536H38.2118ZM31.1626 34.8808V30.8357H42.8518V34.8808H31.1626ZM54.3096 46.1536C52.5844 46.1536 51.0576 45.8463 49.7291 45.2316C48.4203 44.6169 47.3793 43.7345 46.606 42.5844C45.8524 41.4344 45.4757 40.076 45.4757 38.5095C45.4757 36.7646 45.8426 35.2972 46.5762 34.1075C47.3099 32.9177 48.2816 32.0155 49.4911 31.4008C50.7006 30.7862 51.9995 30.4788 53.3875 30.4788C54.8945 30.4788 56.1934 30.796 57.2839 31.4306C58.3944 32.0452 59.247 32.9177 59.8419 34.048C60.4565 35.1783 60.7639 36.4969 60.7639 38.0039C60.7639 38.3211 60.7441 38.688 60.7044 39.1044C60.6846 39.501 60.635 39.8381 60.5557 40.1157H50.8296C50.9485 40.5519 51.137 40.9188 51.3947 41.2162C51.6723 41.4938 52.0293 41.7021 52.4655 41.8408C52.9216 41.9796 53.4371 42.049 54.0121 42.049H59.0685V46.1536H54.3096ZM50.6511 37.1116H55.886C55.886 36.8142 55.8463 36.5465 55.767 36.3085C55.6877 36.0508 55.5786 35.8128 55.4398 35.5947C55.3011 35.3765 55.1324 35.1882 54.9342 35.0295C54.7359 34.8709 54.498 34.7519 54.2203 34.6726C53.9427 34.5933 53.6453 34.5536 53.328 34.5536C52.9116 34.5536 52.5447 34.6231 52.2275 34.7618C51.9103 34.9006 51.6426 35.089 51.4244 35.327C51.2063 35.5451 51.0278 35.8128 50.8891 36.1301C50.7701 36.4275 50.6908 36.7547 50.6511 37.1116ZM64.233 46.1536V42.287H71.4904C71.6886 42.287 71.8473 42.2473 71.9663 42.168C72.1051 42.0887 72.2042 41.9895 72.2637 41.8706C72.343 41.7318 72.3827 41.5831 72.3827 41.4244C72.3827 41.2657 72.343 41.127 72.2637 41.008C72.2042 40.8692 72.1051 40.7601 71.9663 40.6808C71.8473 40.6015 71.6886 40.5618 71.4904 40.5618H68.9919C68.0004 40.5618 67.0983 40.4032 66.2853 40.0859C65.4722 39.7488 64.8179 39.2234 64.3222 38.5095C63.8463 37.7759 63.6083 36.8339 63.6083 35.6839C63.6083 34.7916 63.8265 33.9786 64.2627 33.2449C64.7188 32.5113 65.3235 31.9263 66.0771 31.49C66.8306 31.0538 67.6634 30.8357 68.5755 30.8357H76.1601V34.6726H69.5868C69.3686 34.6726 69.1704 34.7519 68.9919 34.9106C68.8333 35.0692 68.754 35.2675 68.754 35.5054C68.754 35.7236 68.8333 35.9119 68.9919 36.0706C69.1506 36.2292 69.3489 36.3085 69.5868 36.3085H71.9663C73.0965 36.3085 74.0781 36.487 74.9109 36.8439C75.7437 37.181 76.3783 37.7065 76.8145 38.4203C77.2706 39.1342 77.4986 40.076 77.4986 41.246C77.4986 42.1383 77.2706 42.9611 76.8145 43.7147C76.3584 44.4483 75.7437 45.0432 74.9704 45.4993C74.2169 45.9355 73.3642 46.1536 72.4124 46.1536H64.233Z" fill="#323232"/>
</g>
<defs>
<clipPath id="clip0_82_6107">
<rect width="80" height="46.1538" fill="white"/>
</clipPath>
</defs>
</svg>
