<svg width="78" height="45" viewBox="0 0 78 45" fill="none" xmlns="http://www.w3.org/2000/svg">
<path d="M12.5362 22C11.2796 22 10.1582 21.7293 9.17224 21.188C8.20557 20.6273 7.4419 19.8733 6.88123 18.926C6.3399 17.9787 6.06923 16.9153 6.06923 15.736V6.195H0.675234V1.7H16.9152V6.195H11.6082V16.113C11.6082 16.4997 11.7436 16.8283 12.0142 17.099C12.2849 17.3697 12.6039 17.505 12.9712 17.505H14.7692V22H12.5362ZM3.32545 45V40.505H11.9674C12.3348 40.505 12.6441 40.4277 12.8954 40.273C13.1661 40.1183 13.3788 39.9057 13.5335 39.635C13.6881 39.3643 13.7654 39.0743 13.7654 38.765C13.7654 38.4363 13.6881 38.1367 13.5335 37.866C13.3788 37.5953 13.1661 37.3827 12.8954 37.228C12.6441 37.0733 12.3348 36.996 11.9674 36.996H9.09645C7.87845 36.996 6.77645 36.7543 5.79045 36.271C4.80445 35.7877 4.01178 35.1013 3.41245 34.212C2.83245 33.3033 2.54245 32.211 2.54245 30.935C2.54245 29.6783 2.82278 28.586 3.38345 27.658C3.94412 26.7107 4.69812 25.9857 5.64545 25.483C6.59278 24.961 7.64645 24.7 8.80645 24.7H17.9124V29.195H9.50245C9.19312 29.195 8.91278 29.2723 8.66145 29.427C8.42945 29.5623 8.24578 29.746 8.11045 29.978C7.97512 30.21 7.90745 30.471 7.90745 30.761C7.90745 31.051 7.97512 31.3217 8.11045 31.573C8.24578 31.805 8.42945 31.9983 8.66145 32.153C8.91278 32.2883 9.19312 32.356 9.50245 32.356H12.5474C13.8814 32.356 15.0414 32.6073 16.0274 33.11C17.0328 33.6127 17.8061 34.3183 18.3474 35.227C18.8888 36.1163 19.1594 37.17 19.1594 38.388C19.1594 39.78 18.8694 40.9787 18.2895 41.984C17.7288 42.97 16.9651 43.724 15.9984 44.246C15.0511 44.7487 13.9974 45 12.8374 45H3.32545Z" fill="#FF565C"/>
<path d="M15.6589 22V11.56C15.6589 10.168 16.0552 9.07567 16.8479 8.283C17.6599 7.471 18.7812 7.065 20.2119 7.065H24.7939V11.009H21.7489C21.4396 11.009 21.1882 11.1057 20.9949 11.299C20.8016 11.4923 20.7049 11.7437 20.7049 12.053V22H15.6589ZM35.7119 22C34.0299 22 32.5412 21.7003 31.2459 21.101C29.9699 20.5017 28.9549 19.6413 28.2009 18.52C27.4662 17.3987 27.0989 16.0743 27.0989 14.547C27.0989 12.8457 27.4566 11.415 28.1719 10.255C28.8872 9.095 29.8346 8.21533 31.0139 7.616C32.1932 7.01667 33.4596 6.717 34.8129 6.717C36.2822 6.717 37.5486 7.02633 38.6119 7.645C39.6946 8.24433 40.5259 9.095 41.1059 10.197C41.7052 11.299 42.0049 12.5847 42.0049 14.054C42.0049 14.3633 41.9856 14.721 41.9469 15.127C41.9276 15.5137 41.8792 15.8423 41.8019 16.113H32.3189C32.4349 16.5383 32.6186 16.896 32.8699 17.186C33.1406 17.4567 33.4886 17.6597 33.9139 17.795C34.3586 17.9303 34.8612 17.998 35.4219 17.998H40.3519V22H35.7119ZM32.1449 13.184H37.2489C37.2489 12.894 37.2102 12.633 37.1329 12.401C37.0556 12.1497 36.9492 11.9177 36.8139 11.705C36.6786 11.4923 36.5142 11.3087 36.3209 11.154C36.1276 10.9993 35.8956 10.8833 35.6249 10.806C35.3542 10.7287 35.0642 10.69 34.7549 10.69C34.3489 10.69 33.9912 10.7577 33.6819 10.893C33.3726 11.0283 33.1116 11.212 32.8989 11.444C32.6862 11.6567 32.5122 11.9177 32.3769 12.227C32.2609 12.517 32.1836 12.836 32.1449 13.184ZM45.3872 22V18.23H52.4632C52.6565 18.23 52.8112 18.1913 52.9272 18.114C53.0625 18.0367 53.1592 17.94 53.2172 17.824C53.2945 17.6887 53.3332 17.5437 53.3332 17.389C53.3332 17.2343 53.2945 17.099 53.2172 16.983C53.1592 16.8477 53.0625 16.7413 52.9272 16.664C52.8112 16.5867 52.6565 16.548 52.4632 16.548H50.0272C49.0605 16.548 48.1809 16.3933 47.3882 16.084C46.5955 15.7553 45.9575 15.243 45.4742 14.547C45.0102 13.8317 44.7782 12.9133 44.7782 11.792C44.7782 10.922 44.9909 10.1293 45.4162 9.414C45.8609 8.69867 46.4505 8.12833 47.1852 7.703C47.9199 7.27767 48.7319 7.065 49.6212 7.065H57.0162V10.806H50.6072C50.3945 10.806 50.2012 10.8833 50.0272 11.038C49.8725 11.1927 49.7952 11.386 49.7952 11.618C49.7952 11.8307 49.8725 12.0143 50.0272 12.169C50.1819 12.3237 50.3752 12.401 50.6072 12.401H52.9272C54.0292 12.401 54.9862 12.575 55.7982 12.923C56.6102 13.2517 57.2289 13.764 57.6542 14.46C58.0989 15.156 58.3212 16.0743 58.3212 17.215C58.3212 18.085 58.0989 18.8873 57.6542 19.622C57.2095 20.3373 56.6102 20.9173 55.8562 21.362C55.1215 21.7873 54.2902 22 53.3622 22H45.3872ZM61.6229 22V0.829999H66.6399V12.633H68.2639L71.4829 7.065H77.1379L73.2229 13.184C74.3055 13.648 75.1369 14.3343 75.7169 15.243C76.2969 16.1323 76.5869 17.244 76.5869 18.578V22H71.5699V18.578C71.5699 18.0947 71.4539 17.6693 71.2219 17.302C71.0092 16.9347 70.7095 16.6447 70.3229 16.432C69.9555 16.2193 69.5399 16.113 69.0759 16.113H66.6399V22H61.6229ZM22.5003 45V30.065H27.5463V45H22.5003ZM25.0233 28.441C24.25 28.441 23.583 28.1607 23.0223 27.6C22.481 27.0393 22.2103 26.382 22.2103 25.628C22.2103 24.8547 22.481 24.1973 23.0223 23.656C23.583 23.0953 24.25 22.815 25.0233 22.815C25.7966 22.815 26.454 23.0953 26.9953 23.656C27.556 24.1973 27.8363 24.8547 27.8363 25.628C27.8363 26.382 27.556 27.0393 26.9953 27.6C26.454 28.1607 25.7966 28.441 25.0233 28.441ZM37.2583 45C35.847 45 34.7353 44.6037 33.9233 43.811C33.1306 42.999 32.7343 41.897 32.7343 40.505V26.498H37.7513V40.128C37.7513 40.3407 37.8286 40.5243 37.9833 40.679C38.138 40.8143 38.3216 40.882 38.5343 40.882H41.7823V45H37.2583ZM30.3853 34.009V30.065H41.7823V34.009H30.3853ZM52.9536 45C51.2716 45 49.7829 44.7003 48.4876 44.101C47.2116 43.5017 46.1966 42.6413 45.4426 41.52C44.7079 40.3987 44.3406 39.0743 44.3406 37.547C44.3406 35.8457 44.6983 34.415 45.4136 33.255C46.1289 32.095 47.0763 31.2153 48.2556 30.616C49.4349 30.0167 50.7013 29.717 52.0546 29.717C53.5239 29.717 54.7903 30.0263 55.8536 30.645C56.9363 31.2443 57.7676 32.095 58.3476 33.197C58.9469 34.299 59.2466 35.5847 59.2466 37.054C59.2466 37.3633 59.2273 37.721 59.1886 38.127C59.1693 38.5137 59.1209 38.8423 59.0436 39.113H49.5606C49.6766 39.5383 49.8603 39.896 50.1116 40.186C50.3823 40.4567 50.7303 40.6597 51.1556 40.795C51.6003 40.9303 52.1029 40.998 52.6636 40.998H57.5936V45H52.9536ZM49.3866 36.184H54.4906C54.4906 35.894 54.4519 35.633 54.3746 35.401C54.2973 35.1497 54.1909 34.9177 54.0556 34.705C53.9203 34.4923 53.7559 34.3087 53.5626 34.154C53.3693 33.9993 53.1373 33.8833 52.8666 33.806C52.5959 33.7287 52.3059 33.69 51.9966 33.69C51.5906 33.69 51.2329 33.7577 50.9236 33.893C50.6143 34.0283 50.3533 34.212 50.1406 34.444C49.9279 34.6567 49.7539 34.9177 49.6186 35.227C49.5026 35.517 49.4253 35.836 49.3866 36.184ZM62.6289 45V41.23H69.7049C69.8982 41.23 70.0529 41.1913 70.1689 41.114C70.3042 41.0367 70.4009 40.94 70.4589 40.824C70.5362 40.6887 70.5749 40.5437 70.5749 40.389C70.5749 40.2343 70.5362 40.099 70.4589 39.983C70.4009 39.8477 70.3042 39.7413 70.1689 39.664C70.0529 39.5867 69.8982 39.548 69.7049 39.548H67.2689C66.3022 39.548 65.4226 39.3933 64.6299 39.084C63.8372 38.7553 63.1992 38.243 62.7159 37.547C62.2519 36.8317 62.0199 35.9133 62.0199 34.792C62.0199 33.922 62.2326 33.1293 62.6579 32.414C63.1026 31.6987 63.6922 31.1283 64.4269 30.703C65.1616 30.2777 65.9736 30.065 66.8629 30.065H74.2579V33.806H67.8489C67.6362 33.806 67.4429 33.8833 67.2689 34.038C67.1142 34.1927 67.0369 34.386 67.0369 34.618C67.0369 34.8307 67.1142 35.0143 67.2689 35.169C67.4236 35.3237 67.6169 35.401 67.8489 35.401H70.1689C71.2709 35.401 72.2279 35.575 73.0399 35.923C73.8519 36.2517 74.4706 36.764 74.8959 37.46C75.3406 38.156 75.5629 39.0743 75.5629 40.215C75.5629 41.085 75.3406 41.8873 74.8959 42.622C74.4512 43.3373 73.8519 43.9173 73.0979 44.362C72.3632 44.7873 71.5319 45 70.6039 45H62.6289Z" fill="#DADADA"/>
</svg>
