<svg width="51" height="35" viewBox="0 0 51 35" fill="none" xmlns="http://www.w3.org/2000/svg">
<g clip-path="url(#clip0_23_1020)">
<path fill-rule="evenodd" clip-rule="evenodd" d="M50.7 22.1807C46.7319 20.9791 42.7973 20.0178 38.7219 19.2559C38.3347 21.5841 38.1411 22.7482 37.7539 25.0764C41.5382 25.7839 45.1919 26.6766 48.8767 27.7924C48.1003 26.3053 47.6877 25.5657 46.8134 24.0985C48.329 23.2943 49.1068 22.9099 50.7 22.1807Z" fill="#ED0000"/>
<path fill-rule="evenodd" clip-rule="evenodd" d="M38.7219 19.2559C38.8772 19.2848 39.031 19.3162 39.186 19.3458C38.869 21.2519 38.6768 22.4069 38.3284 24.5018C41.7567 25.1428 45.0778 25.9376 48.4118 26.9106C48.5554 27.1795 48.7071 27.4674 48.8767 27.7924C45.1919 26.6766 41.5382 25.7839 37.7539 25.0764C38.1412 22.7482 38.3347 21.5841 38.7219 19.2559Z" fill="#ED0000"/>
<path fill-rule="evenodd" clip-rule="evenodd" d="M44.334 24.6723L38.1836 25.0717C38.2763 24.5142 38.3578 24.0244 38.4335 23.5684C40.3927 23.8691 42.3582 24.2342 44.334 24.6723Z" fill="#ED0000"/>
<path fill-rule="evenodd" clip-rule="evenodd" d="M0.0859375 22.1807C4.05391 20.9791 7.98856 20.0178 12.0639 19.2559C12.4512 21.5841 12.6448 22.7482 13.0321 25.0764C9.24765 25.7839 5.59397 26.6766 1.90928 27.7924C2.68549 26.3053 3.09826 25.5657 3.97254 24.0985C2.4569 23.2943 1.67919 22.9099 0.0859375 22.1807Z" fill="#ED0000"/>
<path fill-rule="evenodd" clip-rule="evenodd" d="M12.0648 19.2559C11.9095 19.2848 11.7557 19.3162 11.6008 19.3458C11.9178 21.2519 12.1099 22.4069 12.4583 24.5018C9.03006 25.1428 5.70893 25.9376 2.3749 26.9106C2.23143 27.1795 2.07965 27.4674 1.91016 27.7924C5.59483 26.6766 9.24851 25.7839 13.0329 25.0764C12.6457 22.7482 12.452 21.5841 12.0648 19.2559Z" fill="#ED0000"/>
<path fill-rule="evenodd" clip-rule="evenodd" d="M6.88281 24.6768L13.0333 25.0762C12.9406 24.5187 12.8591 24.0288 12.7833 23.5728C10.8241 23.8736 8.85875 24.2387 6.88281 24.6768Z" fill="#ED0000"/>
<path fill-rule="evenodd" clip-rule="evenodd" d="M9.42188 4.0612V18.3396C9.42188 22.3062 11.5127 26.0259 15.0289 28.3149L24.5182 34.4923C25.0398 34.8318 25.737 34.8318 26.2588 34.4923L35.7479 28.3149C39.2642 26.0259 41.355 22.3062 41.355 18.3396V4.0612C38.9205 4.0612 36.947 2.24292 36.947 0H13.8299C13.8299 2.24292 11.8563 4.0612 9.42188 4.0612Z" fill="#0A2A42"/>
<path fill-rule="evenodd" clip-rule="evenodd" d="M25.3918 33.3239C25.3624 33.3239 25.3346 33.3168 25.3156 33.3042L15.8264 27.1271C12.7211 25.1057 10.8672 21.8206 10.8672 18.3396V5.31544C12.9109 4.82788 14.5287 3.32856 15.0755 1.42285H35.708C36.2548 3.32856 37.8726 4.82788 39.9163 5.31544V18.3396C39.9163 21.8206 38.0625 25.1057 34.9571 27.1271L25.4681 33.3042C25.4488 33.3168 25.421 33.3239 25.3918 33.3239Z" fill="white"/>
<path fill-rule="evenodd" clip-rule="evenodd" d="M35.1868 2.18994H15.5923C14.9147 3.92899 13.4409 5.2962 11.5859 5.90625V18.3951C11.5859 21.6364 13.3188 24.6995 16.2212 26.5887L25.3895 32.5571L34.5579 26.5887C37.4603 24.6995 39.1932 21.6364 39.1932 18.3951V5.90625C37.3382 5.2962 35.8644 3.92899 35.1868 2.18994Z" fill="#284259"/>
<path fill-rule="evenodd" clip-rule="evenodd" d="M34.2397 25.7713C34.6076 25.759 34.9523 25.702 35.2644 25.602L35.3098 25.5873L35.3186 25.5407C35.3244 25.5102 35.4561 24.7939 35.1042 24.3779C34.9396 24.1834 34.6992 24.0882 34.3894 24.0949C34.2973 24.0969 34.2013 24.0995 34.102 24.1022C33.0205 24.1318 31.5395 24.1722 30.6299 23.4957C29.7266 22.8239 29.385 22.1742 29.1589 21.7444C29.1343 21.6979 29.1113 21.654 29.089 21.6131C28.8678 21.2056 18.9972 5.47613 18.3485 4.44238C18.3774 4.33103 18.3676 4.21978 18.3203 4.13883C18.2742 4.05989 18.1993 4.01997 18.1039 4.02312C18.0168 4.02607 17.9136 4.06406 17.7789 4.14257C17.4195 4.35302 17.4179 4.52375 17.48 4.62972C17.5249 4.70683 17.6183 4.7666 17.7337 4.79345C18.4285 5.90475 29.5086 23.6282 30.1883 24.6139L30.1985 24.6288L30.2142 24.6378C30.2349 24.6498 32.3067 25.8363 34.2397 25.7713C34.2396 25.7713 34.2398 25.7713 34.2397 25.7713Z" fill="#0A2A42"/>
<path fill-rule="evenodd" clip-rule="evenodd" d="M33.4994 24.3258L33.6491 25.4955C33.6491 25.4955 32.4951 25.5142 31.1055 24.7977L31.206 24.0513C31.206 24.0513 31.9985 24.3309 33.4994 24.3258Z" fill="white"/>
<path fill-rule="evenodd" clip-rule="evenodd" d="M33.0996 25.5802C33.1032 25.5811 33.1067 25.5816 33.1104 25.5819C33.1482 25.5846 33.1811 25.5563 33.1839 25.5186L33.2736 24.3072C33.2764 24.2695 33.2477 24.2372 33.2103 24.2336C33.1725 24.2309 33.1396 24.2593 33.1368 24.2971L33.0471 25.5083C33.0446 25.5425 33.0674 25.5726 33.0996 25.5802Z" fill="#284259"/>
<path fill-rule="evenodd" clip-rule="evenodd" d="M32.6008 25.4683C32.6068 25.4697 32.6132 25.4704 32.62 25.4701C32.6578 25.4681 32.6869 25.4359 32.6849 25.398L32.6255 24.2403C32.6235 24.2024 32.5915 24.1733 32.5533 24.1754C32.5155 24.1773 32.4864 24.2096 32.4884 24.2474L32.548 25.4051C32.5495 25.4363 32.5717 25.4615 32.6008 25.4683Z" fill="#284259"/>
<path fill-rule="evenodd" clip-rule="evenodd" d="M31.9513 25.3006L31.9529 25.3009C31.99 25.3087 32.0264 25.2851 32.0342 25.2479L32.2537 24.2097C32.2616 24.1727 32.2395 24.1392 32.2008 24.1284C32.1637 24.1206 32.1273 24.1442 32.1194 24.1814L31.8999 25.2196C31.8922 25.2561 31.9152 25.292 31.9513 25.3006Z" fill="#284259"/>
<path fill-rule="evenodd" clip-rule="evenodd" d="M31.385 25.0987C31.4169 25.1062 31.4504 25.0901 31.4638 25.0589L31.8485 24.1591C31.8635 24.1241 31.8473 24.0838 31.8125 24.069C31.7782 24.053 31.7372 24.0702 31.7224 24.1051L31.3376 25.005C31.3227 25.0398 31.3388 25.0802 31.3736 25.0949C31.3774 25.0967 31.3812 25.0978 31.385 25.0987Z" fill="#284259"/>
<path fill-rule="evenodd" clip-rule="evenodd" d="M18.1189 4.33372C18.1275 4.29178 18.0755 4.26927 18.0428 4.26603C18.0246 4.26421 18.0167 4.23574 18.0303 4.2242C18.0699 4.19076 18.1139 4.18225 18.1567 4.21498C18.2144 4.25915 18.1488 4.30474 18.1244 4.33667C18.1223 4.33939 18.1183 4.33656 18.1189 4.33372Z" fill="white"/>
<path fill-rule="evenodd" clip-rule="evenodd" d="M31.3984 24.1058C31.3984 24.1058 30.4792 23.8396 30.0391 23.292C30.0391 23.292 30.3858 23.9029 31.3517 24.257L31.3984 24.1058Z" fill="white"/>
<path fill-rule="evenodd" clip-rule="evenodd" d="M33.3555 24.3253C33.3555 24.3253 33.9724 24.3046 34.2783 24.2944C34.2783 24.2944 33.8 24.4009 33.3893 24.4297L33.3555 24.3253Z" fill="white"/>
<path fill-rule="evenodd" clip-rule="evenodd" d="M22.3103 11.2473L18.1461 4.50439L18.082 4.53488L22.3103 11.2473Z" fill="white"/>
<path fill-rule="evenodd" clip-rule="evenodd" d="M34.1331 25.4792C34.1331 25.4792 33.5881 25.5284 33.2695 25.471L33.3893 25.3135C33.3893 25.3135 33.8473 25.4939 34.1331 25.4792Z" fill="white"/>
<path fill-rule="evenodd" clip-rule="evenodd" d="M16.5413 25.7713C16.1735 25.759 15.8288 25.702 15.5166 25.602L15.4713 25.5873L15.4623 25.5407C15.4567 25.5102 15.3251 24.7939 15.6768 24.3779C15.8414 24.1834 16.0819 24.0882 16.3915 24.0949C16.4836 24.0969 16.5797 24.0995 16.6791 24.1022C17.7605 24.1318 19.2416 24.1722 20.1512 23.4957C21.0543 22.8239 21.3961 22.1742 21.6223 21.7444C21.6467 21.6979 21.6698 21.654 21.6919 21.6131C21.9132 21.2056 31.7839 5.47613 32.4325 4.44238C32.4036 4.33103 32.4134 4.21978 32.4607 4.13883C32.5069 4.05989 32.5817 4.01997 32.6771 4.02312C32.7643 4.02607 32.8675 4.06406 33.0022 4.14257C33.3615 4.35302 33.363 4.52375 33.3012 4.62972C33.2561 4.70683 33.1626 4.7666 33.0472 4.79345C32.3525 5.90475 21.2724 23.6282 20.5927 24.6139L20.5825 24.6288L20.5669 24.6378C20.5461 24.6498 18.4745 25.8363 16.5413 25.7713Z" fill="#0A2A42"/>
<path fill-rule="evenodd" clip-rule="evenodd" d="M17.2826 24.3258L17.1328 25.4955C17.1328 25.4955 18.287 25.5142 19.6765 24.7977L19.576 24.0513C19.576 24.0513 18.7835 24.3309 17.2826 24.3258Z" fill="white"/>
<path fill-rule="evenodd" clip-rule="evenodd" d="M17.6781 25.5802C17.6746 25.5811 17.671 25.5816 17.6673 25.5819C17.6296 25.5846 17.5966 25.5563 17.5939 25.5186L17.5041 24.3072C17.5012 24.2695 17.5301 24.2372 17.5674 24.2336C17.6053 24.2309 17.6381 24.2593 17.641 24.2971L17.7306 25.5083C17.7332 25.5425 17.7103 25.5726 17.6781 25.5802Z" fill="#284259"/>
<path fill-rule="evenodd" clip-rule="evenodd" d="M18.1781 25.4683C18.172 25.4697 18.1655 25.4704 18.1588 25.4701C18.1209 25.4681 18.0918 25.4359 18.0939 25.398L18.1534 24.2403C18.1552 24.2024 18.1872 24.1733 18.2253 24.1754C18.2633 24.1773 18.2923 24.2096 18.2904 24.2474L18.2308 25.4051C18.2292 25.4363 18.207 25.4615 18.1781 25.4683Z" fill="#284259"/>
<path fill-rule="evenodd" clip-rule="evenodd" d="M18.8275 25.3006C18.827 25.3007 18.8264 25.3007 18.8259 25.3009C18.7888 25.3087 18.7525 25.2851 18.7446 25.2479L18.525 24.2097C18.5172 24.1727 18.5393 24.1392 18.578 24.1284C18.6151 24.1206 18.6515 24.1442 18.6593 24.1814L18.8789 25.2196C18.8866 25.2561 18.8637 25.292 18.8275 25.3006Z" fill="#284259"/>
<path fill-rule="evenodd" clip-rule="evenodd" d="M19.395 25.0987C19.3629 25.1062 19.3295 25.0901 19.3161 25.0589L18.9313 24.1591C18.9165 24.1241 18.9326 24.0838 18.9675 24.069C19.0017 24.053 19.0427 24.0702 19.0576 24.1051L19.4424 25.005C19.4573 25.0398 19.4411 25.0802 19.4062 25.0949C19.4026 25.0967 19.3987 25.0978 19.395 25.0987Z" fill="#284259"/>
<path fill-rule="evenodd" clip-rule="evenodd" d="M32.6585 4.33372C32.6499 4.29178 32.702 4.26927 32.7346 4.26603C32.7529 4.26421 32.7608 4.23574 32.747 4.2242C32.7075 4.19076 32.6636 4.18225 32.6208 4.21498C32.563 4.25915 32.6286 4.30474 32.653 4.33667C32.6552 4.33939 32.6591 4.33656 32.6585 4.33372Z" fill="white"/>
<path fill-rule="evenodd" clip-rule="evenodd" d="M19.3828 24.1058C19.3828 24.1058 20.302 23.8396 20.7421 23.292C20.7421 23.292 20.3952 23.9029 19.4294 24.257L19.3828 24.1058Z" fill="white"/>
<path fill-rule="evenodd" clip-rule="evenodd" d="M17.4229 24.3253C17.4229 24.3253 16.8059 24.3046 16.5 24.2944C16.5 24.2944 16.9784 24.4009 17.3891 24.4297L17.4229 24.3253Z" fill="white"/>
<path fill-rule="evenodd" clip-rule="evenodd" d="M28.4727 11.2473L32.6369 4.50439L32.7008 4.53488L28.4727 11.2473Z" fill="white"/>
<path fill-rule="evenodd" clip-rule="evenodd" d="M16.6445 25.4792C16.6445 25.4792 17.1895 25.5284 17.508 25.471L17.3883 25.3135C17.3883 25.3135 16.9302 25.4939 16.6445 25.4792Z" fill="white"/>
<path fill-rule="evenodd" clip-rule="evenodd" d="M31.5913 15.8362C31.5913 19.3336 28.756 22.1689 25.2586 22.1689C21.7611 22.1689 18.9258 19.3336 18.9258 15.8362C18.9258 12.3387 21.7611 9.50342 25.2586 9.50342C28.756 9.50342 31.5913 12.3387 31.5913 15.8362Z" fill="#0A2A42"/>
<path fill-rule="evenodd" clip-rule="evenodd" d="M23.4953 20.5151C23.5151 20.5111 23.5347 20.5067 23.554 20.5023C23.5657 20.4997 23.5771 20.4969 23.5888 20.4942C23.6063 20.4899 23.6238 20.4857 23.641 20.4813C23.653 20.4782 23.6649 20.475 23.6768 20.4721C23.6935 20.4676 23.71 20.463 23.7264 20.4582C23.7384 20.4549 23.7501 20.4517 23.7618 20.448C23.778 20.4434 23.7941 20.4386 23.8101 20.4338C23.8217 20.4302 23.8331 20.4267 23.8445 20.4231C23.861 20.4177 23.8769 20.4125 23.8929 20.4072C23.9035 20.4038 23.9143 20.4003 23.9249 20.3968C23.9423 20.3908 23.9593 20.3846 23.9764 20.3787C23.9854 20.3756 23.9942 20.3724 24.003 20.3693C24.0282 20.36 24.0533 20.3508 24.078 20.3413C24.0827 20.3393 24.0874 20.3374 24.0923 20.3356C24.1122 20.3277 24.132 20.3199 24.1514 20.3121C24.1605 20.3083 24.1692 20.3046 24.1782 20.3008C24.1931 20.2948 24.208 20.2886 24.2227 20.2822C24.2323 20.2782 24.2417 20.2741 24.2511 20.2698C24.2645 20.2639 24.2782 20.2581 24.2913 20.2521C24.3009 20.2477 24.3102 20.2436 24.3194 20.2393C24.3326 20.2334 24.345 20.2276 24.3576 20.2216C24.3667 20.2174 24.3757 20.2132 24.3847 20.209C24.3971 20.2029 24.4095 20.197 24.4217 20.191C24.4301 20.1869 24.4384 20.1829 24.4467 20.1788C24.4595 20.1726 24.4718 20.1661 24.4842 20.1598C24.4912 20.1564 24.4986 20.1528 24.5055 20.1491C24.5198 20.1417 24.5338 20.1344 24.5477 20.127C24.5521 20.1246 24.5568 20.1223 24.5612 20.1198C24.5796 20.1103 24.5972 20.1006 24.6145 20.0912C24.6145 20.0912 24.6149 20.0907 24.6152 20.0907C23.9069 20.2877 21.9854 19.2201 21.4793 16.8921L20.7851 17.2254L20.6797 18.0308L21.2947 19.3096C22.0937 20.1443 23.3757 20.5384 23.3757 20.5384C23.406 20.5332 23.436 20.5274 23.4657 20.5214C23.4757 20.5194 23.4854 20.5173 23.4953 20.5151Z" fill="#B5BAC1"/>
<path fill-rule="evenodd" clip-rule="evenodd" d="M21.9403 12.3882C21.9403 12.3882 20.9855 12.8317 20.4281 13.588C20.4281 13.588 19.988 14.2087 19.8867 15.8543L20.0331 16.6609L20.6838 17.1704L20.7786 17.1999C20.7786 17.1999 21.0772 16.9481 21.4347 16.6869C21.0127 15.0046 21.4423 13.197 21.9403 12.3882Z" fill="#BFC3CA"/>
<path fill-rule="evenodd" clip-rule="evenodd" d="M20.9044 19.1478L20.926 19.2281C20.926 19.2281 21.9844 20.8371 24.0982 21.2027L24.3035 21.2036L24.5174 21.2482C24.5174 21.2482 25.7932 21.3771 26.7718 21.0747L26.8352 21.036C26.8352 21.036 29.1859 20.474 30.1581 18.0856L30.3146 17.8722C30.3146 17.8722 30.7316 16.9501 30.7461 15.7246L30.727 15.642L30.7694 15.4014C30.7694 15.4014 30.6688 13.1617 29.1352 11.7918L29.0442 11.766L29.0044 11.6965C29.0044 11.6965 28.0236 10.6788 26.5075 10.4249L26.4297 10.4439L26.3641 10.395C26.3641 10.395 24.5473 10.0013 22.9028 10.8191L22.8591 10.8589L22.7495 10.8841C22.7495 10.8841 21.2884 11.4909 20.5018 13.0269L20.4723 13.1508L20.399 13.2235C20.399 13.2235 19.6412 14.261 19.7885 16.3428L19.8077 16.411C19.8077 16.411 19.9063 17.9088 20.9044 19.1478Z" fill="white"/>
<path fill-rule="evenodd" clip-rule="evenodd" d="M30.1609 14.5831C29.9405 13.1129 29.1816 12.4074 29.1816 12.4074L29.022 12.2366L27.8965 11.5708L27.0547 11.689L26.1844 12.9891L25.8516 13.4592L26.7905 15.826L29.1323 16.3069L29.2295 16.3124L29.7414 15.9835L29.7536 15.5564C30.1582 14.841 30.1609 14.5831 30.1609 14.5831ZM29.7557 15.1204C29.6519 15.3939 29.3548 16.0051 29.0408 16.0659C28.9134 16.0904 28.3605 15.9587 27.8456 15.8496C27.3306 15.7407 27.0124 15.6737 26.9232 15.44C26.8759 15.316 26.3403 14.0786 26.2151 13.7719C26.0898 13.465 26.1584 13.3193 26.2953 13.1155L26.2942 13.1144C26.4967 12.8341 26.7586 12.4329 26.8579 12.2962C27.0338 12.0537 27.0303 11.8022 27.7928 11.9596C28.3635 12.0772 28.6153 12.212 28.8511 12.4013C29.5172 12.9358 29.8462 13.7586 29.8895 14.4538C29.9034 14.6777 29.822 14.9458 29.7557 15.1204Z" fill="#284259"/>
<path fill-rule="evenodd" clip-rule="evenodd" d="M22.0421 12.3061C22.0421 12.3061 22.9864 13.2872 23.0687 13.3946C23.151 13.5019 23.5649 13.3382 24.2653 13.2752C24.9658 13.2124 25.6467 13.1495 25.7491 13.0988C25.8513 13.0482 26.5527 12.1246 26.7066 11.9211C26.8607 11.7174 26.883 11.5717 26.738 11.418C26.5927 11.2642 25.8753 10.6486 25.6521 10.5651C25.4287 10.4816 25.2149 10.4806 24.8987 10.4987C24.5826 10.5171 23.904 10.608 23.1919 10.8313C22.4799 11.0546 22.069 11.6621 22.043 11.7751C22.0171 11.8879 22.0421 12.3061 22.0421 12.3061Z" fill="white"/>
<path fill-rule="evenodd" clip-rule="evenodd" d="M19.9203 15.9699C19.9203 15.9699 19.9584 14.4217 20.478 13.3492L20.4285 13.1025C20.4285 13.1025 19.4814 14.2963 19.6289 16.378L19.8078 16.4108C19.8078 16.4108 19.8354 16.2615 19.9203 15.9699Z" fill="#284259"/>
<path fill-rule="evenodd" clip-rule="evenodd" d="M23.959 21.202L24.2714 21.2033C23.8036 21.1553 23.3096 20.6741 23.3096 20.6741C21.9404 20.1435 21.3787 19.4011 21.3787 19.4011L21.3551 19.3518L21.2934 19.3095L20.901 18.9287L20.8359 19.0561C20.8593 19.0868 20.8829 19.1174 20.9075 19.1476C20.9075 19.1476 21.8453 20.8363 23.959 21.202Z" fill="white"/>
<path fill-rule="evenodd" clip-rule="evenodd" d="M23.0424 13.7396C22.9677 13.9119 22.6172 14.9025 22.5395 16.1057C22.5395 16.1057 22.5219 16.2416 22.7206 16.4078C22.9193 16.574 24.5577 17.6125 24.6596 17.6566C24.7615 17.7009 24.8272 17.6973 24.9478 17.6068C25.0685 17.516 26.5969 16.1801 26.714 16.0637C26.8312 15.9476 26.8757 15.7726 26.7892 15.5244C26.7027 15.276 26.1245 13.9074 25.9893 13.6637C25.8541 13.4201 25.7477 13.2835 25.3878 13.3111C25.0279 13.339 23.8093 13.4873 23.5027 13.5347C23.1962 13.582 23.1014 13.6036 23.0424 13.7396Z" fill="#284259"/>
<path fill-rule="evenodd" clip-rule="evenodd" d="M26.5966 10.3887C26.5966 10.3887 26.4245 10.4225 26.4046 10.4233C26.3158 10.4266 25.9018 10.4462 25.869 10.4516C25.8361 10.4568 25.7719 10.5078 25.7556 10.5368C25.739 10.5658 25.8466 10.5773 25.9775 10.6707C26.1084 10.7644 26.8408 11.389 26.9277 11.506C27.0149 11.6231 27.0327 11.7253 27.0327 11.7253C27.0327 11.7253 27.1496 11.6527 27.463 11.7234C27.7765 11.7938 28.6546 11.9846 29.0934 12.3388C29.0934 12.3388 29.1273 12.334 29.1276 12.2514C29.1279 12.1689 29.1072 11.9036 29.0457 11.7661L28.9698 11.5797C28.9698 11.5797 28.1129 10.6428 26.5966 10.3887Z" fill="#284259"/>
<path fill-rule="evenodd" clip-rule="evenodd" d="M30.7455 15.7247L30.7264 15.642C30.7264 15.642 30.6786 15.4106 30.5316 15.1378C30.3845 14.865 30.2198 14.6091 30.1132 14.5503C30.1132 14.5503 29.9245 15.5221 29.1289 16.3066C29.1289 16.3066 29.2499 16.4385 29.2784 16.6281C29.3067 16.8178 29.3942 18.063 29.2857 18.4953C29.2857 18.4953 29.3632 18.5224 29.5459 18.455C29.7284 18.3876 29.9795 18.2788 30.1575 18.0856L30.314 17.8722C30.314 17.8722 30.731 16.9501 30.7455 15.7247Z" fill="#284259"/>
<path fill-rule="evenodd" clip-rule="evenodd" d="M26.7229 21.1619L27.1601 20.6241L27.3027 20.2381C25.9263 20.3298 25.1598 19.8794 25.1598 19.8794L25.0913 20.0104C24.2042 20.5225 23.4453 20.6118 23.4453 20.6118C23.7255 21.0869 24.6141 21.3505 24.6141 21.3505C24.6141 21.3505 25.7442 21.4645 26.7229 21.1619Z" fill="#284259"/>
<path fill-rule="evenodd" clip-rule="evenodd" d="M20.8348 17.2175C20.8348 17.2175 20.1855 16.6558 19.9165 15.8037C19.9165 15.8037 19.7236 16.1359 19.7483 16.5421C19.7761 16.8157 19.8272 17.9323 20.7158 19.0354C20.7158 19.0354 21.1384 19.2985 21.3514 19.3523C21.3514 19.3523 20.8102 18.5349 20.8348 17.2175Z" fill="#284259"/>
<path fill-rule="evenodd" clip-rule="evenodd" d="M20.418 12.9208L20.4435 13.384C20.4435 13.384 21.262 12.5315 21.8365 12.3344C21.8365 12.3344 21.9751 12.3033 22.0433 12.3231C22.0433 12.3231 22.0412 12.216 22.0731 12.136C22.1051 12.0559 22.5833 11.3139 23.2161 10.8276C23.2161 10.8276 22.9791 10.8394 22.8587 10.8589L22.607 10.869C22.607 10.869 21.2045 11.385 20.418 12.9208Z" fill="#284259"/>
<path fill-rule="evenodd" clip-rule="evenodd" d="M27.7719 20.4294C27.3826 20.4888 27.5004 20.2761 27.5926 20.2003C27.4304 20.279 27.3829 20.4279 27.3829 20.4279C27.1282 20.8742 26.8359 21.0359 26.8359 21.0359C26.8359 21.0359 29.1866 20.4738 30.1588 18.0854C29.7223 19.0561 28.2683 20.3534 27.7719 20.4294Z" fill="white"/>
<path fill-rule="evenodd" clip-rule="evenodd" d="M25.7657 13.8817C25.6555 13.6833 25.569 13.5722 25.2759 13.5947C24.9828 13.6172 23.9905 13.7381 23.7409 13.7768C23.5122 13.8121 23.4283 13.83 23.3789 13.918C23.4998 14.2848 24.0839 15.5303 26.4527 15.6205C26.457 15.5559 26.4465 15.4815 26.417 15.3968C26.3465 15.1947 25.8758 14.0801 25.7657 13.8817Z" fill="white"/>
<path fill-rule="evenodd" clip-rule="evenodd" d="M30.1602 14.9204C30.1602 14.9204 30.6691 16.5467 29.5833 18.1762C29.5833 18.1762 29.7026 16.679 29.4805 16.3281C29.4805 16.3281 29.913 15.9308 30.1602 14.9204Z" fill="white"/>
<path fill-rule="evenodd" clip-rule="evenodd" d="M27.1882 11.375C26.9816 11.1914 26.7242 10.9226 26.4138 10.7479C26.394 10.7365 26.3645 10.734 26.3438 10.7256L26.3946 10.6942L26.8208 10.6846C26.8208 10.6846 27.1843 11.4481 28.6182 11.8153L28.6675 11.9412C28.6675 11.9412 28.0185 11.5423 27.2645 11.5078C27.2645 11.5078 27.2673 11.4453 27.1882 11.375Z" fill="white"/>
<path fill-rule="evenodd" clip-rule="evenodd" d="M22.6751 10.918C22.6751 10.918 21.7587 11.3639 21.3809 12.3055C21.3809 12.3055 20.7863 12.6756 20.5273 12.9809C20.5273 12.9809 21.199 11.6027 22.6751 10.918Z" fill="white"/>
<path fill-rule="evenodd" clip-rule="evenodd" d="M19.846 16.0854C19.846 16.0854 19.7489 17.5693 20.8298 19.0687C20.8298 19.0687 20.4871 18.3977 20.4733 17.6086C20.4653 17.1563 19.9719 16.7958 19.846 16.0854Z" fill="white"/>
<path fill-rule="evenodd" clip-rule="evenodd" d="M23.9141 20.7489C23.9141 20.7489 24.1257 21.2226 25.2162 21.2033C25.7613 21.1938 26.211 21.1457 26.4919 21.0597C26.6502 21.0075 26.8466 20.7849 26.948 20.5796C26.948 20.5796 26.7807 20.9046 26.2937 20.9869C25.8067 21.0689 24.4788 21.1069 23.9141 20.7489Z" fill="white"/>
<path fill-rule="evenodd" clip-rule="evenodd" d="M24.7734 17.457C24.7734 17.457 25.0398 20.0166 25.065 20.1103C25.0901 20.2038 25.4698 20.0854 25.6375 20.1405C25.8051 20.1958 26.5266 20.3621 27.2014 20.3531C27.2014 20.3531 25.6432 20.1861 25.3909 19.7425C25.1464 19.3124 24.7734 17.457 24.7734 17.457Z" fill="#284259"/>
<path fill-rule="evenodd" clip-rule="evenodd" d="M27.2891 20.2732C27.2891 20.2732 28.4845 19.6732 29.68 18.3027L29.3205 18.3805C29.3205 18.3805 28.4278 19.4658 27.2891 20.2732Z" fill="#284259"/>
<path fill-rule="evenodd" clip-rule="evenodd" d="M30.2946 14.4737C30.3029 14.488 30.3118 14.5024 30.3221 14.5172C30.391 14.616 30.7221 15.1352 30.7285 15.6422L30.7709 15.4016C30.7709 15.4016 30.6703 13.1619 29.1367 11.792C29.1367 11.792 29.9427 12.668 30.226 13.6223C30.453 14.3878 30.398 14.5447 30.2946 14.4737Z" fill="white"/>
<path fill-rule="evenodd" clip-rule="evenodd" d="M23.0898 13.822L21.8555 12.1309L23.323 13.6275L23.0898 13.822Z" fill="#284259"/>
<path fill-rule="evenodd" clip-rule="evenodd" d="M20.7773 17.2438L22.5887 16.0479L22.7394 16.3297L20.7773 17.2438Z" fill="#284259"/>
<path fill-rule="evenodd" clip-rule="evenodd" d="M26.7812 11.3569C26.7812 11.3569 27.0847 11.6441 26.8666 11.9701C26.6484 12.2961 27.1006 11.6742 27.1006 11.6742C27.1006 11.6742 26.8992 11.3605 26.7812 11.3569Z" fill="#284259"/>
<path fill-rule="evenodd" clip-rule="evenodd" d="M21.0289 18.7593C21.0289 18.7593 21.9703 20.2092 23.4435 20.6118C23.4435 20.6118 22.2731 20.5185 20.9609 19.148L21.0289 18.7593Z" fill="#284259"/>
<path fill-rule="evenodd" clip-rule="evenodd" d="M5.26562 17.6114C5.81883 19.9058 6.09581 21.053 6.65043 23.3471C19.2674 20.5491 31.4775 20.5463 44.0958 23.3381C44.6639 21.0473 44.9481 19.902 45.5169 17.6114C31.9813 14.5898 18.8011 14.5898 5.26562 17.6114Z" fill="#ED0000"/>
<path fill-rule="evenodd" clip-rule="evenodd" d="M13.2754 17.5054L13.7761 17.437L13.8242 17.7892L13.8966 17.7794C14.1912 17.7393 14.4326 17.8021 14.6205 17.9675C14.8085 18.1332 14.9249 18.3811 14.9698 18.711C14.9998 18.9312 14.9875 19.1288 14.9329 19.3026C14.8782 19.4768 14.7835 19.6185 14.6491 19.7278C14.5146 19.8374 14.3435 19.9061 14.1362 19.934L14.1166 19.9369L14.1767 20.377L13.676 20.4451L13.6159 20.0049L13.5904 20.0084C13.279 20.051 13.0249 19.9892 12.8281 19.8234C12.6316 19.6576 12.5103 19.4059 12.4642 19.068C12.4357 18.8569 12.4478 18.6645 12.5012 18.4914C12.5546 18.3179 12.6464 18.1769 12.7765 18.0684C12.9063 17.9598 13.0672 17.8925 13.2589 17.8664L13.3234 17.8575L13.2754 17.5054ZM13.3785 18.2621L13.3219 18.2701C13.1915 18.2879 13.0992 18.3591 13.0452 18.4841C12.9911 18.609 12.9782 18.7749 13.0065 18.9822C13.0358 19.1975 13.0974 19.3602 13.1915 19.4701C13.2853 19.5801 13.4022 19.6258 13.5418 19.6066L13.5613 19.6042L13.3785 18.2621ZM14.062 19.5358L14.0777 19.5337C14.2186 19.5146 14.3189 19.4398 14.379 19.3096C14.4389 19.1791 14.454 19.0056 14.4245 18.7892C14.3956 18.5766 14.3387 18.4188 14.2535 18.3155C14.1683 18.2122 14.0606 18.1692 13.9301 18.187L13.8792 18.194L14.062 19.5358Z" fill="white"/>
<path fill-rule="evenodd" clip-rule="evenodd" d="M15.0625 18.0044L15.6042 17.9461L16.0396 19.1479C16.0815 19.2547 16.1224 19.4059 16.162 19.6013L16.1737 19.6003C16.1716 19.5686 16.1714 19.5121 16.1733 19.4304C16.1751 19.349 16.1768 19.2848 16.1784 19.2383C16.18 19.1919 16.2222 18.7358 16.3049 17.8705L16.8545 17.8115L16.4811 20.2223C16.4362 20.5184 16.3577 20.7359 16.2456 20.875C16.1336 21.0143 15.9728 21.095 15.7636 21.1177C15.6601 21.1288 15.5667 21.1274 15.4833 21.1142L15.436 20.6765C15.4913 20.6863 15.5524 20.6876 15.6191 20.6807C15.7944 20.6614 15.8973 20.5341 15.9273 20.2977L15.9497 20.1564L15.0625 18.0044Z" fill="white"/>
<path fill-rule="evenodd" clip-rule="evenodd" d="M18.4557 17.6719L18.4925 18.0949L18.0049 18.1375L18.1594 19.9054L17.636 19.9512L17.4817 18.1833L16.994 18.2258L16.957 17.8028L18.4557 17.6719Z" fill="white"/>
<path fill-rule="evenodd" clip-rule="evenodd" d="M18.7682 18.5756C18.7351 18.0763 18.7812 17.6911 18.9065 17.4189C19.0317 17.147 19.2527 16.9528 19.5694 16.837C19.7343 16.7787 19.9743 16.7165 20.2892 16.6509L20.3806 17.1078L20.0355 17.1861C19.816 17.2376 19.6534 17.296 19.5476 17.3616C19.4418 17.4276 19.3655 17.5194 19.3186 17.638C19.2716 17.7564 19.2491 17.9113 19.2513 18.1022L19.267 18.1011C19.3213 17.9869 19.3908 17.8988 19.4752 17.8362C19.5593 17.7741 19.6534 17.7395 19.757 17.7326C19.9672 17.7186 20.1355 17.7926 20.2624 17.9545C20.3891 18.1161 20.4624 18.3489 20.4825 18.6523C20.5057 19.0041 20.449 19.2837 20.3124 19.4914C20.1757 19.6987 19.9735 19.8115 19.7056 19.8289C19.4324 19.847 19.2148 19.7472 19.0525 19.5297C18.8906 19.3123 18.7957 18.9944 18.7682 18.5756ZM19.6957 19.3807C19.8926 19.3675 19.9774 19.1543 19.9501 18.7406C19.9238 18.3403 19.8212 18.1459 19.6426 18.1577C19.5652 18.1626 19.495 18.1985 19.4322 18.2655C19.3694 18.3322 19.3259 18.4146 19.302 18.5123C19.3412 19.106 19.4723 19.3954 19.6957 19.3807Z" fill="white"/>
<path fill-rule="evenodd" clip-rule="evenodd" d="M22.4836 18.5439C22.499 18.9042 22.4348 19.1879 22.2908 19.3949C22.1468 19.6019 21.9421 19.7112 21.6764 19.7224C21.5082 19.7296 21.3575 19.6899 21.2247 19.6033C21.092 19.5171 20.987 19.3886 20.9101 19.2186C20.8329 19.049 20.7896 18.8483 20.7795 18.6169C20.7644 18.2605 20.8281 17.9788 20.9706 17.772C21.1134 17.565 21.3189 17.4556 21.587 17.4442C21.8461 17.4334 22.0565 17.5266 22.2186 17.7244C22.3803 17.9223 22.4688 18.1956 22.4836 18.5439ZM21.316 18.5939C21.3258 18.8225 21.3582 18.9946 21.4133 19.1094C21.4681 19.2243 21.5508 19.2794 21.6613 19.2745C21.8715 19.2654 21.9671 19.0299 21.9471 18.567C21.9374 18.3369 21.9048 18.1659 21.8492 18.0542C21.7937 17.9429 21.7113 17.8896 21.6022 17.894C21.4918 17.899 21.4141 17.9589 21.3689 18.0748C21.3239 18.1907 21.3063 18.3638 21.316 18.5939Z" fill="white"/>
<path fill-rule="evenodd" clip-rule="evenodd" d="M24.4765 19.6054L23.9497 19.6155L23.9156 17.8413L23.6216 17.8469C23.6037 18.2933 23.5681 18.6482 23.5146 18.911C23.461 19.1743 23.3864 19.3659 23.2906 19.486C23.1948 19.6064 23.066 19.6682 22.9042 19.6709C22.8054 19.6731 22.7243 19.6602 22.6605 19.6323L22.6523 19.2001C22.692 19.2127 22.7323 19.2182 22.7731 19.2175C22.8836 19.2155 22.967 19.0726 23.0236 18.7892C23.0799 18.5058 23.1187 18.0531 23.1398 17.4315L24.4344 17.4067L24.4765 19.6054Z" fill="white"/>
<path fill-rule="evenodd" clip-rule="evenodd" d="M24.832 18.7524L24.8322 18.2905L25.8249 18.2908L25.8247 18.7526L24.832 18.7524Z" fill="white"/>
<path fill-rule="evenodd" clip-rule="evenodd" d="M27.8656 19.6393L27.3071 19.6284L26.9147 18.5861L26.5117 19.6131L25.9531 19.6023L26.6415 18.1149L26.0586 16.7178L26.5994 16.7282L26.962 17.685L27.3099 16.7418L27.8724 16.7529L27.2353 18.1501L27.8656 19.6393Z" fill="white"/>
<path fill-rule="evenodd" clip-rule="evenodd" d="M29.7374 18.6153C29.7219 18.9759 29.6335 19.253 29.4722 19.4467C29.3112 19.6408 29.0977 19.7319 28.8323 19.7203C28.6639 19.7133 28.5173 19.661 28.3925 19.5633C28.2675 19.4658 28.174 19.329 28.1116 19.1532C28.0495 18.9773 28.0233 18.7737 28.0333 18.542C28.0487 18.1859 28.1363 17.9105 28.2959 17.7168C28.4558 17.5228 28.6698 17.4313 28.9381 17.4429C29.197 17.4541 29.3988 17.5654 29.5432 17.7762C29.6876 17.9873 29.7522 18.2669 29.7374 18.6153ZM28.5698 18.5653C28.5599 18.794 28.5775 18.9678 28.6224 19.0872C28.6673 19.2063 28.745 19.2684 28.8555 19.2728C29.0659 19.2819 29.181 19.0551 29.2009 18.5923C29.2108 18.3622 29.1929 18.1894 29.1471 18.0732C29.1014 17.9573 29.0239 17.8973 28.9149 17.8924C28.8043 17.8879 28.7217 17.9412 28.6669 18.0525C28.612 18.1643 28.5796 18.335 28.5698 18.5653Z" fill="white"/>
<path fill-rule="evenodd" clip-rule="evenodd" d="M31.2794 17.6176L31.8309 17.6546L31.1604 18.6542L31.7212 19.8514L31.1439 19.8127L30.6466 18.6454L30.5708 19.7743L30.0469 19.739L30.1942 17.5449L30.7181 17.5799L30.6478 18.6276L31.2794 17.6176Z" fill="white"/>
<path fill-rule="evenodd" clip-rule="evenodd" d="M33.2046 17.7789L33.7551 17.8288L33.0608 18.8123L33.5932 20.0222L33.0168 19.9698L32.5474 18.791L32.4447 19.9178L31.9219 19.87L32.1213 17.6802L32.6444 17.7276L32.5491 18.7736L33.2046 17.7789Z" fill="white"/>
<path fill-rule="evenodd" clip-rule="evenodd" d="M34.5728 20.1754C34.2996 20.1439 34.0953 20.0221 33.9602 19.8098C33.8252 19.5976 33.7781 19.3135 33.8189 18.9578C33.8604 18.5972 33.9641 18.3235 34.1298 18.1371C34.2957 17.9511 34.5062 17.8727 34.761 17.902C34.9994 17.9291 35.1767 18.0377 35.294 18.2265C35.4112 18.4158 35.4525 18.6663 35.4161 18.9788L35.3841 19.2573L34.3347 19.1366C34.3162 19.3317 34.3397 19.481 34.4046 19.5848C34.4695 19.6884 34.5687 19.7477 34.702 19.7631C34.872 19.7827 35.0517 19.7495 35.2416 19.6643L35.1928 20.0936C35.0133 20.175 34.8071 20.2022 34.5728 20.1754ZM34.711 18.3037C34.6363 18.295 34.5704 18.3274 34.5128 18.4011C34.4555 18.4744 34.4133 18.5938 34.3861 18.7588L34.9156 18.8199C34.9317 18.66 34.9212 18.5365 34.8849 18.4489C34.8486 18.361 34.7906 18.3128 34.711 18.3037Z" fill="white"/>
<path fill-rule="evenodd" clip-rule="evenodd" d="M36.3942 18.148L36.2504 19.1564C36.2327 19.2815 36.1876 19.4871 36.1151 19.7732L37.0547 18.2419L37.692 18.3327L37.3818 20.5098L36.8973 20.4409L37.0431 19.4168C37.0648 19.2629 37.1095 19.0581 37.1765 18.8018L36.2327 20.3464L35.6016 20.2564L35.9115 18.0793L36.3942 18.148ZM37.6397 17.4259C37.5825 17.6413 37.4883 17.7914 37.3569 17.8762C37.226 17.9613 37.047 17.9878 36.8205 17.9554C36.5988 17.924 36.44 17.8504 36.3433 17.7349C36.2466 17.6196 36.204 17.449 36.2149 17.2231L36.6466 17.2845C36.6424 17.4172 36.6578 17.509 36.6924 17.5603C36.7269 17.612 36.7876 17.6437 36.875 17.6563C36.9612 17.6686 37.0289 17.6514 37.0787 17.6053C37.1283 17.5593 37.1688 17.4787 37.1999 17.3635L37.6397 17.4259Z" fill="white"/>
<path fill-rule="evenodd" clip-rule="evenodd" d="M23.1506 7.36087L22.9453 6.45932H22.0144L21.8091 7.36087H21.1445L22.029 3.77393H22.9306L23.8176 7.36087H23.1506ZM22.8207 5.87046L22.6301 5.03962C22.6187 4.98926 22.5931 4.8625 22.553 4.65966C22.5131 4.45692 22.4892 4.32125 22.481 4.25287C22.4599 4.39299 22.433 4.5473 22.4004 4.71589C22.3678 4.88449 22.2831 5.26931 22.1463 5.87046H22.8207Z" fill="white"/>
<path fill-rule="evenodd" clip-rule="evenodd" d="M26.3392 7.36082H25.6745V5.7946H24.7974V7.36082H24.1328V3.78857H24.7974V5.20817H25.6745V3.78857H26.3392V7.36082Z" fill="white"/>
<path fill-rule="evenodd" clip-rule="evenodd" d="M29.4272 5.56976C29.4272 6.16104 29.3169 6.61555 29.0951 6.93319C28.8736 7.25083 28.5567 7.40968 28.1446 7.40968C27.7308 7.40968 27.4132 7.25116 27.1917 6.93443C26.9702 6.6176 26.8594 6.16104 26.8594 5.56486C26.8594 4.97357 26.9702 4.52037 27.1917 4.20517C27.4132 3.88996 27.7325 3.73242 28.1495 3.73242C28.5616 3.73242 28.8776 3.89078 29.0975 4.2076C29.3176 4.52433 29.4272 4.97845 29.4272 5.56976ZM27.5386 5.56976C27.5386 5.97694 27.59 6.28731 27.6926 6.50076C27.7952 6.71415 27.9458 6.82082 28.1446 6.82082C28.5454 6.82082 28.7457 6.40378 28.7457 5.56976C28.7457 4.73568 28.5469 4.31875 28.1495 4.31875C27.9476 4.31875 27.7952 4.42503 27.6926 4.6376C27.59 4.85018 27.5386 5.16092 27.5386 5.56976Z" fill="white"/>
</g>
<defs>
<clipPath id="clip0_23_1020">
<rect width="50.6154" height="35" fill="white" transform="translate(0.0859375)"/>
</clipPath>
</defs>
</svg>
