<svg width="66" height="35" viewBox="0 0 66 35" fill="none" xmlns="http://www.w3.org/2000/svg">
<g clip-path="url(#clip0_23_985)">
<path d="M31.7812 28.3096L32.6035 28.5327L33.4118 28.3134C33.1916 28.3156 32.9706 28.3167 32.7488 28.3167C32.4246 28.3167 32.1021 28.3143 31.7812 28.3096Z" fill="url(#paint0_linear_23_985)"/>
<path fill-rule="evenodd" clip-rule="evenodd" d="M10.1112 22.5445C10.1501 17.3408 19.8252 12.4964 32.7471 12.4964C45.6039 12.4964 54.8306 17.2922 54.9615 22.466L63.2842 20.2079C64.4503 18.6388 65.0841 16.9523 65.0841 15.1964C65.0841 6.80362 50.6062 0 32.7471 0C14.8879 0 0.410156 6.80362 0.410156 15.1964C0.410156 16.1447 0.745998 17.9122 1.62279 19.4022C2.40376 20.7293 3.69742 21.7921 4.26902 22.5445H10.1112ZM32.7471 10.4203C43.0227 10.4203 51.899 13.2357 56.0735 17.3145C53.5109 12.7421 44.501 9.02296 32.7471 9.02296C20.9934 9.02296 11.9833 12.7421 9.42072 17.3145C13.5954 13.2357 22.4716 10.4203 32.7471 10.4203ZM59.3966 16.3792C56.0777 10.9329 45.403 6.94689 32.7471 6.94689C20.0913 6.94689 9.41649 10.933 6.09766 16.3794C7.62396 10.5489 18.4015 5.54948 32.7471 5.54948C47.0925 5.54948 57.8699 10.5488 59.3966 16.3792ZM32.7471 3.47345C45.0127 3.47345 55.5869 6.87716 60.4253 11.7843C57.1942 6.37487 46.4755 2.07604 32.7471 2.07604C19.0187 2.07604 8.30011 6.37483 5.06881 11.7843C9.90752 6.87716 20.4815 3.47345 32.7471 3.47345Z" fill="url(#paint1_linear_23_985)"/>
<path d="M9.06976 23.9346C9.40405 23.9346 9.69976 24.0134 9.95694 24.171C10.2141 24.3286 10.3877 24.544 10.4776 24.8172L13.9299 34.8099H9.66762L7.66185 27.7331C7.61042 27.5334 7.56541 27.3285 7.52683 27.1184C7.48826 26.8977 7.45611 26.6875 7.43039 26.4879H6.90966C6.88394 26.6875 6.85183 26.8977 6.81325 27.1184C6.77468 27.3285 6.72967 27.5334 6.67824 27.7331L4.67243 34.8099H0.410156L3.86242 24.8172C3.95242 24.544 4.126 24.3286 4.38315 24.171C4.64032 24.0134 4.93604 23.9346 5.27032 23.9346H9.06976ZM10.7091 30.0657V32.4615H3.63099V30.0657H10.7091Z" fill="#2B2B2B"/>
<path d="M20.4597 23.7773C21.8741 23.7773 22.9798 23.8877 23.777 24.1083C24.5742 24.3185 25.1399 24.6915 25.4742 25.2274C25.8085 25.7633 25.9756 26.5146 25.9756 27.4813C25.9756 28.4374 25.8149 29.1835 25.4935 29.7194C25.1849 30.2448 24.6706 30.6178 23.9506 30.8384C23.2306 31.0486 22.2598 31.1537 21.0383 31.1537C20.3954 31.1537 19.7525 31.1274 19.1097 31.0748C18.4668 31.0118 17.8625 30.9383 17.2968 30.8542C16.7439 30.7596 16.2681 30.665 15.8696 30.5705C15.471 30.4654 15.1946 30.3708 15.0403 30.2868L15.0981 28.7422C15.9339 28.7422 16.8017 28.7422 17.7018 28.7422C18.6018 28.7422 19.489 28.7422 20.3633 28.7422C20.749 28.7422 21.0448 28.7106 21.2505 28.6476C21.4562 28.5741 21.5976 28.4479 21.6748 28.2693C21.7519 28.0802 21.7905 27.8175 21.7905 27.4813C21.7905 27.1345 21.7519 26.8666 21.6748 26.6774C21.5976 26.4883 21.4562 26.3622 21.2505 26.2992C21.0448 26.2256 20.749 26.1888 20.3633 26.1888C19.0518 26.1888 17.9332 26.1941 17.0075 26.2046C16.0817 26.2151 15.4517 26.2361 15.1174 26.2676L14.8281 23.935C15.4195 23.8824 15.9724 23.8456 16.4867 23.8246C17.0139 23.8036 17.586 23.7931 18.2032 23.7931C18.8204 23.7826 19.5726 23.7773 20.4597 23.7773ZM19.0133 23.935V34.8103H14.8281V23.935H19.0133Z" fill="#2B2B2B"/>
<path d="M30.3627 23.8716C31.1341 23.8716 31.9249 23.8768 32.7349 23.8873C33.5578 23.8873 34.3614 23.9031 35.1457 23.9346C35.93 23.9556 36.6436 24.0029 37.2865 24.0764L37.0936 26.4879H32.2142C31.9699 26.4879 31.777 26.5405 31.6356 26.6456C31.4941 26.7506 31.4234 26.8873 31.4234 27.0554V31.6892C31.4234 31.8573 31.4941 31.9939 31.6356 32.099C31.777 32.2041 31.9699 32.2566 32.2142 32.2566H37.0936L37.2865 34.6681C36.6436 34.7312 35.93 34.7785 35.1457 34.81C34.3614 34.8415 33.5578 34.8572 32.7349 34.8572C31.9249 34.8677 31.1341 34.873 30.3627 34.873C29.4498 34.873 28.6976 34.6471 28.1062 34.1953C27.5276 33.7329 27.2383 33.134 27.2383 32.3985V26.3461C27.2383 25.6106 27.5276 25.0169 28.1062 24.5651C28.6976 24.1027 29.4498 23.8716 30.3627 23.8716ZM27.5854 28.1114H36.3993V30.381H27.5854V28.1114Z" fill="#2B2B2B"/>
<path d="M43.1031 23.9346V34.8099H38.918V23.9346H43.1031ZM46.6712 27.8434V30.2391H42.9491V27.8434H46.6712ZM50.6441 23.9346V34.8099H46.4589V23.9346H50.6441Z" fill="#2B2B2B"/>
<path d="M60.2223 23.9346C60.5564 23.9346 60.8523 24.0134 61.1095 24.171C61.3667 24.3286 61.5402 24.544 61.6299 24.8172L65.0824 34.8099H60.82L58.8143 27.7331C58.763 27.5334 58.7177 27.3285 58.6793 27.1184C58.6409 26.8977 58.6085 26.6875 58.583 26.4879H58.0622C58.0364 26.6875 58.0044 26.8977 57.9656 27.1184C57.9272 27.3285 57.8823 27.5334 57.8305 27.7331L55.8249 34.8099H51.5625L55.0149 24.8172C55.1047 24.544 55.2786 24.3286 55.5358 24.171C55.7929 24.0134 56.0885 23.9346 56.4229 23.9346H60.2223ZM61.8616 30.0657V32.4615H54.7836V30.0657H61.8616Z" fill="#2B2B2B"/>
<path d="M19.1559 18.8809C19.3894 18.8809 19.6246 18.8822 19.8613 18.8849C20.1013 18.8877 20.3299 18.8958 20.5473 18.9094L20.5278 19.1871H19.297C19.1835 19.1871 19.0992 19.2102 19.044 19.2565C18.9921 19.3001 18.9662 19.3736 18.9662 19.477V21.7025H18.543V19.4117C18.543 19.2538 18.5997 19.1259 18.7133 19.0279C18.83 18.9299 18.9775 18.8809 19.1559 18.8809Z" fill="#2B2B2B"/>
<path d="M22.2031 18.8315C22.4463 18.8315 22.6522 18.856 22.8209 18.905C22.9928 18.954 23.129 19.0357 23.2295 19.15C23.3333 19.2617 23.4079 19.4114 23.4533 19.5992C23.5019 19.7871 23.5263 20.0185 23.5263 20.2934C23.5263 20.5684 23.5019 20.7998 23.4533 20.9876C23.4079 21.1755 23.3333 21.3265 23.2295 21.4409C23.129 21.5525 22.9928 21.6328 22.8209 21.6818C22.6522 21.7308 22.4463 21.7553 22.2031 21.7553C21.9598 21.7553 21.7522 21.7308 21.5804 21.6818C21.4117 21.6328 21.2755 21.5525 21.1717 21.4409C21.068 21.3265 20.9918 21.1755 20.9431 20.9876C20.8977 20.7998 20.875 20.5684 20.875 20.2934C20.875 20.0185 20.8977 19.7871 20.9431 19.5992C20.9918 19.4114 21.068 19.2617 21.1717 19.15C21.2755 19.0357 21.4117 18.954 21.5804 18.905C21.7522 18.856 21.9598 18.8315 22.2031 18.8315ZM22.2031 19.1541C21.9825 19.1541 21.8074 19.1895 21.6777 19.2603C21.5512 19.3311 21.4604 19.4495 21.4053 19.6156C21.3534 19.7789 21.3274 20.0048 21.3274 20.2934C21.3274 20.5793 21.3534 20.8052 21.4053 20.9713C21.4604 21.1374 21.5512 21.2558 21.6777 21.3265C21.8074 21.3973 21.9825 21.4327 22.2031 21.4327C22.4236 21.4327 22.5971 21.3973 22.7236 21.3265C22.8533 21.2558 22.9441 21.1374 22.996 20.9713C23.0512 20.8052 23.0787 20.5793 23.0787 20.2934C23.0787 20.0048 23.0512 19.7789 22.996 19.6156C22.9441 19.4495 22.8533 19.3311 22.7236 19.2603C22.5971 19.1895 22.4236 19.1541 22.2031 19.1541Z" fill="#2B2B2B"/>
<path d="M25.4434 18.8359C25.5861 18.8359 25.7077 18.8387 25.8082 18.8441C25.912 18.8496 26.0061 18.8591 26.0904 18.8727C26.1779 18.8836 26.2671 18.8986 26.3579 18.9176L26.3141 19.1912C26.2169 19.183 26.126 19.1762 26.0417 19.1708C25.9606 19.1654 25.8731 19.1612 25.779 19.1585C25.685 19.1558 25.5731 19.1544 25.4434 19.1544C25.2261 19.1544 25.0542 19.1899 24.9277 19.2606C24.8012 19.3314 24.7104 19.4498 24.6553 19.6159C24.6034 19.782 24.5774 20.0079 24.5774 20.2938C24.5774 20.5796 24.6034 20.8056 24.6553 20.9716C24.7104 21.1377 24.8012 21.2561 24.9277 21.3269C25.0542 21.3977 25.2261 21.4331 25.4434 21.4331C25.6509 21.4331 25.8244 21.4303 25.9639 21.4249C26.1066 21.4167 26.246 21.4045 26.3823 21.3881L26.426 21.6577C26.2866 21.6903 26.1423 21.7134 25.9931 21.7271C25.8471 21.7434 25.6639 21.7516 25.4434 21.7516C25.1223 21.7516 24.8645 21.7053 24.6699 21.6127C24.4785 21.5174 24.3391 21.3636 24.2515 21.1513C24.1672 20.9389 24.125 20.6531 24.125 20.2938C24.125 19.9344 24.1672 19.6485 24.2515 19.4362C24.3391 19.2239 24.4785 19.0714 24.6699 18.9789C24.8645 18.8836 25.1223 18.8359 25.4434 18.8359Z" fill="#2B2B2B"/>
<path d="M28.2268 18.8848V21.7024H27.7987V18.8848H28.2268ZM29.3116 18.8848V19.2033H26.7188V18.8848H29.3116Z" fill="#2B2B2B"/>
<path d="M32.3667 18.8848V21.7024H31.9532V19.6484C31.9532 19.5939 31.9548 19.5395 31.958 19.4851C31.9613 19.4306 31.9677 19.3775 31.9775 19.3258H31.9532C31.9304 19.3775 31.9029 19.4306 31.8705 19.4851C31.838 19.5368 31.8072 19.5858 31.778 19.6321L30.2894 21.7024H29.8516V18.8848H30.2651V20.9183C30.2651 20.9755 30.2618 21.0327 30.2554 21.0899C30.2521 21.1443 30.2473 21.1988 30.2407 21.2532H30.2602C30.2862 21.2015 30.3153 21.1498 30.3478 21.098C30.3834 21.0463 30.4175 20.996 30.4499 20.947L31.924 18.8848H32.3667Z" fill="#2B2B2B"/>
<path d="M33.6429 18.8848V21.7024H33.2148V18.8848H33.6429ZM35.2434 20.0404V20.3507H33.604V20.0404H35.2434ZM35.6181 18.8848V21.7024H35.1899V18.8848H35.6181Z" fill="#2B2B2B"/>
<path d="M38.9801 18.8848V21.7024H38.5665V19.6484C38.5665 19.5939 38.568 19.5395 38.5715 19.4851C38.5745 19.4306 38.581 19.3775 38.5909 19.3258H38.5665C38.5437 19.3775 38.5163 19.4306 38.4836 19.4851C38.4513 19.5368 38.4205 19.5858 38.3913 19.6321L36.9026 21.7024H36.4648V18.8848H36.8783V20.9183C36.8783 20.9755 36.8751 21.0327 36.8686 21.0899C36.8654 21.1443 36.8605 21.1988 36.854 21.2532H36.8735C36.8994 21.2015 36.9286 21.1498 36.961 21.098C36.9967 21.0463 37.0308 20.996 37.0632 20.947L38.5372 18.8848H38.9801Z" fill="#2B2B2B"/>
<path d="M39.8281 21.7024V18.8848H40.2561V21.7024H39.8281ZM40.2173 21.7024V21.4084H42.6106V21.7024H40.2173ZM41.7691 21.7024V18.8848H42.1971V21.7024H41.7691ZM42.3139 22.319L42.2701 21.6738H42.6106V22.319H42.3139Z" fill="#2B2B2B"/>
<path d="M44.5048 18.8848C44.5436 18.8848 44.5778 18.8943 44.6067 18.9133C44.636 18.9297 44.6554 18.9528 44.6653 18.9828L45.745 21.7024H45.3025L44.4317 19.3911C44.4188 19.353 44.404 19.3149 44.388 19.2768C44.375 19.2359 44.3621 19.1978 44.3488 19.1624H44.2126C44.1997 19.1978 44.1867 19.2359 44.1738 19.2768C44.1609 19.3149 44.1464 19.353 44.13 19.3911L43.2592 21.7024H42.8164L43.8965 18.9828C43.9064 18.9528 43.9258 18.9297 43.955 18.9133C43.984 18.8943 44.0182 18.8848 44.057 18.8848H44.5048ZM45.1272 20.51V20.8203H43.4247V20.51H45.1272Z" fill="#2B2B2B"/>
</g>
<defs>
<linearGradient id="paint0_linear_23_985" x1="4.8582" y1="6.87161" x2="58.6185" y2="22.6359" gradientUnits="userSpaceOnUse">
<stop stop-color="#A63D4D"/>
<stop offset="1" stop-color="#A63D4D" stop-opacity="0"/>
</linearGradient>
<linearGradient id="paint1_linear_23_985" x1="4.85649" y1="6.8716" x2="58.6167" y2="22.6359" gradientUnits="userSpaceOnUse">
<stop stop-color="#A63D4D"/>
<stop offset="1" stop-color="#A63D4D" stop-opacity="0"/>
</linearGradient>
<clipPath id="clip0_23_985">
<rect width="64.6739" height="35" fill="white" transform="translate(0.410156)"/>
</clipPath>
</defs>
</svg>
