<svg width="129" height="35" viewBox="0 0 129 35" fill="none" xmlns="http://www.w3.org/2000/svg">
<g clip-path="url(#clip0_23_1175)">
<path d="M16.6814 31.056C16.6814 33.2346 14.9153 35.0002 12.7372 35.0002C10.559 35.0002 8.79297 33.2346 8.79297 31.056C8.79297 28.8779 10.559 27.1118 12.7372 27.1118C14.9153 27.1118 16.6814 28.8779 16.6814 31.056Z" fill="#0077BD"/>
<path d="M16.6814 3.94378C16.6814 6.12235 14.9153 7.88798 12.7372 7.88798C10.559 7.88798 8.79297 6.12235 8.79297 3.94378C8.79297 1.76564 10.559 0 12.7372 0C14.9153 0 16.6814 1.76564 16.6814 3.94378Z" fill="#B5B5B5"/>
<path d="M25.3919 3.94378C25.3919 6.12235 23.6262 7.88798 21.4481 7.88798C19.2695 7.88798 17.5039 6.12235 17.5039 3.94378C17.5039 1.76564 19.2695 0 21.4481 0C23.6262 0 25.3919 1.76564 25.3919 3.94378Z" fill="#B5B5B5"/>
<path d="M34.1067 3.94378C34.1067 6.12235 32.3411 7.88798 30.1625 7.88798C27.9844 7.88798 26.2188 6.12235 26.2188 3.94378C26.2188 1.76564 27.9844 0 30.1625 0C32.3411 0 34.1067 1.76564 34.1067 3.94378Z" fill="#B5B5B5"/>
<path d="M7.96613 12.9813C7.96613 15.1595 6.20003 16.9251 4.02191 16.9251C1.84377 16.9251 0.078125 15.1595 0.078125 12.9813C0.078125 10.8032 1.84377 9.03711 4.02191 9.03711C6.20003 9.03711 7.96613 10.8032 7.96613 12.9813Z" fill="#0077BD"/>
<path d="M16.6814 12.9813C16.6814 15.1595 14.9153 16.9251 12.7372 16.9251C10.559 16.9251 8.79297 15.1595 8.79297 12.9813C8.79297 10.8032 10.559 9.03711 12.7372 9.03711C14.9153 9.03711 16.6814 10.8032 16.6814 12.9813Z" fill="#0077BD"/>
<path d="M25.3919 12.9813C25.3919 15.1595 23.6262 16.9251 21.4481 16.9251C19.2695 16.9251 17.5039 15.1595 17.5039 12.9813C17.5039 10.8032 19.2695 9.03711 21.4481 9.03711C23.6262 9.03711 25.3919 10.8032 25.3919 12.9813Z" fill="#0077BD"/>
<path d="M16.6814 22.0185C16.6814 24.1971 14.9153 25.9627 12.7372 25.9627C10.559 25.9627 8.79297 24.1971 8.79297 22.0185C8.79297 19.8403 10.559 18.0747 12.7372 18.0747C14.9153 18.0747 16.6814 19.8403 16.6814 22.0185Z" fill="#0077BD"/>
<path d="M25.3919 22.0185C25.3919 24.1971 23.6262 25.9627 21.4481 25.9627C19.2695 25.9627 17.5039 24.1971 17.5039 22.0185C17.5039 19.8403 19.2695 18.0747 21.4481 18.0747C23.6262 18.0747 25.3919 19.8403 25.3919 22.0185Z" fill="#B5B5B5"/>
<path d="M70.5561 17.9721V31.7835H68.9531V3.27002H70.5561V15.4058L79.6631 3.27002H81.7299L73.1759 14.7465L84.2254 31.7835H82.2473L72.1247 16.0294L70.5561 17.9721Z" fill="#B5B5B5"/>
<path d="M107.567 27.5778L108.778 28.6647C105.999 31.1957 102.724 32.4605 98.9583 32.4605C94.9193 32.4605 91.4764 31.038 88.6309 28.1925C85.7854 25.3475 84.3633 21.9049 84.3633 17.8653C84.3633 13.8378 85.7854 10.3986 88.6309 7.54682C91.4764 4.6959 94.9193 3.27002 98.9583 3.27002C102.724 3.27002 105.999 4.53528 108.778 7.0658L107.567 8.17087C105.119 5.99649 102.249 4.90951 98.9583 4.90951C95.3819 4.90951 92.3287 6.17476 89.7988 8.70526C87.2683 11.2358 86.0024 14.2894 86.0024 17.8653C86.0024 21.4537 87.2683 24.5124 89.7988 27.0433C92.3287 29.5734 95.3819 30.8391 98.9583 30.8391C102.249 30.8391 105.119 29.7521 107.567 27.5778Z" fill="#B5B5B5"/>
<path d="M120.63 4.87377V31.7835H119.026V4.87377H111.809V3.27002H127.847V4.87377H120.63Z" fill="#B5B5B5"/>
<path d="M49.2667 13.8906C49.3798 13.8906 49.4913 13.8982 49.601 13.9091C49.6355 13.9129 49.6695 13.9183 49.7036 13.923C49.7801 13.9331 49.8558 13.9457 49.9307 13.9613C49.9677 13.9688 50.0042 13.9768 50.0404 13.9857C50.1173 14.0046 50.1931 14.0264 50.2675 14.0504C50.2961 14.0596 50.3251 14.0672 50.3528 14.0773C50.4504 14.1118 50.5459 14.1509 50.6392 14.1942C50.6703 14.2085 50.7002 14.2253 50.7308 14.2409C50.7939 14.2728 50.8561 14.3056 50.9172 14.3414C50.9541 14.3636 50.9907 14.3863 51.0269 14.4095C51.0798 14.4436 51.132 14.4797 51.1833 14.5171C51.2178 14.5424 51.2527 14.5668 51.2863 14.5933C51.2952 14.6 51.3044 14.6063 51.3128 14.613C51.317 14.6176 51.3216 14.6222 51.3258 14.6273C51.4806 14.7534 51.6261 14.8905 51.7552 15.0423L51.7686 15.0432C52.83 16.07 54.2731 16.7041 55.8663 16.7041C57.1736 16.7041 58.3775 16.2735 59.3551 15.5545H59.358C59.5675 15.3884 59.8107 15.266 60.0732 15.1895C60.1146 15.1773 60.1555 15.166 60.198 15.1559C60.2418 15.1462 60.285 15.1369 60.3293 15.1298C60.4267 15.1142 60.5265 15.1033 60.6291 15.1033C61.766 15.1033 62.6871 16.0246 62.6871 17.1612C62.6871 18.2978 61.766 19.2191 60.6291 19.2191C60.5265 19.2191 60.4267 19.2081 60.3293 19.1926C60.285 19.1854 60.2418 19.1761 60.198 19.1665C60.1555 19.1568 60.1146 19.1455 60.0732 19.1329C59.8107 19.0563 59.5675 18.9344 59.358 18.7679L59.3551 18.7683C58.3775 18.0489 57.1736 17.6182 55.8663 17.6182C54.2731 17.6182 52.83 18.2528 51.7686 19.2792L51.7552 19.28C51.6261 19.4318 51.4806 19.5689 51.3258 19.6951C51.3216 19.7001 51.317 19.7047 51.3128 19.7094C51.3044 19.7165 51.2952 19.7224 51.2863 19.7291C51.2527 19.7556 51.2178 19.78 51.1833 19.8056C51.132 19.8427 51.0798 19.8788 51.0269 19.9129C50.9907 19.936 50.9541 19.9592 50.9172 19.981C50.8561 20.0167 50.7939 20.05 50.7308 20.0815C50.7002 20.0971 50.6703 20.1139 50.6392 20.1282C50.5459 20.1719 50.4504 20.211 50.3528 20.2455C50.3251 20.2551 50.2961 20.2627 50.2675 20.272C50.1931 20.2964 50.1173 20.3183 50.0404 20.3372C50.0042 20.3456 49.9677 20.3536 49.9307 20.3611C49.8558 20.3767 49.7801 20.3893 49.704 20.3998C49.6695 20.4044 49.6355 20.4095 49.601 20.4128C49.4913 20.4246 49.3798 20.4318 49.2667 20.4318C47.4607 20.4318 45.9961 18.9676 45.9961 17.1612C45.9961 15.3547 47.4607 13.8906 49.2667 13.8906Z" fill="#0077BD"/>
<path d="M63.6379 17.9543C63.471 21.1975 62.2116 23.9954 59.8596 26.3477C57.3173 28.8904 54.2579 30.1616 50.6816 30.1616C47.0935 30.1616 44.0286 28.8904 41.4863 26.3477C40.1079 24.9937 39.1042 23.4787 38.4747 21.8039H36.7461C37.4349 23.9185 38.6227 25.8132 40.3102 27.488C43.1733 30.3516 46.6306 31.7834 50.6816 31.7834C54.7095 31.7834 58.1516 30.3579 61.0094 27.5061C63.866 24.6548 65.2951 21.2038 65.2951 17.1524C65.2951 13.1131 63.866 9.6672 61.0094 6.81628C58.1516 3.96453 54.7095 2.53906 50.6816 2.53906C46.6306 2.53906 43.1733 3.95907 40.3102 6.7982C39.478 7.65348 38.7657 8.54493 38.1716 9.47126H40.1676C40.5595 8.96079 40.9989 8.46169 41.4863 7.97431C44.0286 5.43205 47.0935 4.1609 50.6816 4.1609C54.2579 4.1609 57.3173 5.43205 59.8596 7.97431C62.2116 10.3265 63.471 13.1186 63.6379 16.3505" fill="#B5B5B5"/>
</g>
<defs>
<clipPath id="clip0_23_1175">
<rect width="128.333" height="35" fill="white" transform="translate(0.078125)"/>
</clipPath>
</defs>
</svg>
