<svg width="101" height="35" viewBox="0 0 101 35" fill="none" xmlns="http://www.w3.org/2000/svg">
<g clip-path="url(#clip0_23_1206)">
<path d="M1.87023 15.1557L3.50411 15.4674L1.31698 26.8783C0.972351 28.6763 2.15768 30.4182 3.95985 30.762L23.5664 34.5028C25.3686 34.8466 27.1145 33.664 27.4591 31.8659L29.6462 20.455L31.2801 20.7668C31.6032 20.8283 31.9374 20.793 32.2404 20.6651C32.5433 20.5373 32.8015 20.3226 32.9822 20.0484C33.1629 19.7742 33.2581 19.4526 33.2557 19.1244C33.2532 18.7962 33.1534 18.4761 32.9686 18.2045L21.0757 0.727855C20.9531 0.54742 20.7961 0.392862 20.6136 0.273032C20.4311 0.153202 20.2267 0.070449 20.0121 0.0295088C19.7976 -0.0114315 19.577 -0.00975634 19.3631 0.0344393C19.1491 0.078635 18.946 0.164484 18.7654 0.287072L1.24842 12.1526C0.976288 12.337 0.765065 12.5978 0.64145 12.9019C0.517836 13.2061 0.48738 13.54 0.553932 13.8614C0.620484 14.1828 0.781056 14.4773 1.01535 14.7077C1.24964 14.938 1.54714 15.0939 1.87023 15.1557ZM19.2578 3.96497L27.1865 15.6161L24.193 31.2428L4.58475 27.5018L7.57988 11.8753L19.2578 3.96497Z" fill="#B85E65"/>
<path d="M15.0133 26.1117C21.0635 27.2661 24.1267 21.8704 24.2536 21.6412L21.3432 20.0366C21.323 20.0716 19.3454 23.5587 15.6382 22.8514C11.9815 22.1538 11.3978 18.2896 11.3768 18.125L8.07812 18.5551C8.11133 18.8149 8.96298 24.9574 15.0133 26.1117Z" fill="#B85E65"/>
<path d="M40.7154 15.6412C39.6943 15.6412 38.8424 15.3421 38.1597 14.7439C37.4829 14.1398 37.1445 13.3609 37.1445 12.4073C37.1445 11.4537 37.4799 10.6778 38.1508 10.0796C38.8157 9.47544 39.6646 9.17334 40.6976 9.17334C41.315 9.17334 41.8404 9.28294 42.2738 9.50209V11.3056C41.7691 11.0332 41.2616 10.8969 40.751 10.8969C40.2761 10.8969 39.8843 11.042 39.5756 11.3323C39.2669 11.6166 39.1125 11.9749 39.1125 12.4073C39.1125 12.8515 39.2728 13.2158 39.5934 13.5001C39.9199 13.7785 40.3295 13.9176 40.8222 13.9176C41.4278 13.9176 41.9413 13.7696 42.3628 13.4734V15.3036C41.9294 15.5287 41.3803 15.6412 40.7154 15.6412Z" fill="#B85E65"/>
<path d="M48.3553 15.5165H46.4497V13.3753C46.1706 13.4997 45.8204 13.5619 45.3989 13.5619C44.6687 13.5619 44.0928 13.3724 43.6713 12.9933C43.2498 12.6083 43.0391 12.0871 43.0391 11.4296V9.29736H44.9447V11.1809C44.9447 11.406 45.016 11.5777 45.1584 11.6962C45.3069 11.8146 45.4939 11.8739 45.7195 11.8739C46.04 11.8739 46.2834 11.8176 46.4497 11.7051V9.29736H48.3553V15.5165Z" fill="#B85E65"/>
<path d="M50.8091 15.5169H48.832L51.3966 9.26221H53.2221L55.7956 15.5169H53.7386L53.2936 14.353H51.2631L50.8091 15.5169ZM52.2781 11.4478L51.8151 12.9226H52.7326L52.2781 11.4478Z" fill="#B85E65"/>
<path d="M59.2194 15.6412C58.1984 15.6412 57.3464 15.3421 56.6639 14.7439C55.9869 14.1398 55.6484 13.3609 55.6484 12.4073C55.6484 11.4537 55.9839 10.6778 56.6549 10.0796C57.3199 9.47544 58.1689 9.17334 59.2019 9.17334C59.8189 9.17334 60.3444 9.28294 60.7779 9.50209V11.3056C60.2734 11.0332 59.7659 10.8969 59.2549 10.8969C58.7804 10.8969 58.3884 11.042 58.0799 11.3323C57.7709 11.6166 57.6164 11.9749 57.6164 12.4073C57.6164 12.8515 57.7769 13.2158 58.0974 13.5001C58.4239 13.7785 58.8334 13.9176 59.3264 13.9176C59.9319 13.9176 60.4454 13.7696 60.8669 13.4734V15.3036C60.4334 15.5287 59.8844 15.6412 59.2194 15.6412Z" fill="#B85E65"/>
<path d="M61.4219 10.941V9.29736H66.8989V10.941H65.1089V15.5165H63.1944V10.941H61.4219Z" fill="#B85E65"/>
<path d="M66.7734 15.4276V13.7396C66.9454 13.8166 67.0909 13.8551 67.2099 13.8551C67.4294 13.8551 67.5929 13.8107 67.6994 13.7218C67.9549 13.5027 68.0854 12.7209 68.0914 11.3763L68.1179 9.29736H73.0334V15.5165H71.1279V10.941H69.8544L69.8454 11.6873C69.8399 13.1858 69.6289 14.2282 69.2134 14.8146C68.8574 15.3358 68.3349 15.5965 67.6459 15.5965C67.2364 15.5965 66.9454 15.5402 66.7734 15.4276Z" fill="#B85E65"/>
<path d="M75.6061 15.5165H73.9766V9.29736H75.8286V12.3892L78.2331 9.29736H79.8091V15.5165H77.9746V12.4514L75.6061 15.5165Z" fill="#B85E65"/>
<path d="M84.045 15.5165H80.75V9.29736H83.9115C84.493 9.29736 84.968 9.43361 85.336 9.70606C85.7105 9.97256 85.8975 10.3665 85.8975 10.8877C85.8975 11.1898 85.814 11.4415 85.648 11.6429C85.476 11.8502 85.3095 11.9923 85.149 12.0693C85.4225 12.1226 85.6865 12.3003 85.942 12.6024C86.203 12.8985 86.3335 13.2687 86.3335 13.7129C86.3335 14.2519 86.123 14.6873 85.7015 15.019C85.28 15.3506 84.7275 15.5165 84.045 15.5165ZM82.665 12.9489V13.9795H83.671C83.843 13.9795 83.9795 13.9351 84.0805 13.8462C84.1875 13.7514 84.241 13.6271 84.241 13.4731C84.241 13.3191 84.1875 13.1947 84.0805 13.0999C83.974 12.9992 83.837 12.9489 83.671 12.9489H82.665ZM82.665 10.7811V11.6162H83.6355C83.766 11.6162 83.873 11.5777 83.956 11.5007C84.045 11.4237 84.0895 11.329 84.0895 11.2164C84.0895 11.0861 84.045 10.9825 83.956 10.9055C83.873 10.8225 83.766 10.7811 83.6355 10.7811H82.665Z" fill="#B85E65"/>
<path d="M94.6354 15.5165H92.7294V9.29736H94.6354V15.5165ZM89.6039 15.5165H87.0039V9.29736H88.9184V11.092H89.6039C90.3759 11.092 90.9989 11.3023 91.4739 11.7228C91.9489 12.1434 92.1864 12.6735 92.1864 13.3131C92.1864 13.9588 91.9519 14.4889 91.4829 14.9035C91.0079 15.3121 90.3814 15.5165 89.6039 15.5165ZM88.9184 12.5846V13.9262H89.4794C89.7109 13.9262 89.8979 13.8669 90.0404 13.7485C90.1889 13.6241 90.2629 13.4642 90.2629 13.2687C90.2629 13.0673 90.1889 12.9045 90.0404 12.7801C89.8979 12.6498 89.7109 12.5846 89.4794 12.5846H88.9184Z" fill="#B85E65"/>
<path d="M100.52 15.5165H95.5781V9.29736H100.467V10.941H97.4926V11.4918H99.8256V13.0022H97.4926V13.8729H100.52V15.5165Z" fill="#B85E65"/>
<path d="M38.6219 26.4355H36.832V23.6458H37.4643C37.868 22.9232 38.0698 21.8008 38.0698 20.2786V19.0703H42.923V23.6458H43.7066V26.4355H41.9079V25.2894H38.6219V26.4355ZM39.3878 23.6458H41.0174V20.7139H39.8686C39.8686 21.1759 39.8271 21.706 39.744 22.3043C39.6608 22.8788 39.5421 23.326 39.3878 23.6458Z" fill="#B85E65"/>
<path d="M49.2977 25.2894H44.3555V19.0703H49.2443V20.7139H46.27V21.2648H48.6031V22.7751H46.27V23.6458H49.2977V25.2894Z" fill="#B85E65"/>
<path d="M49.7422 20.7139V19.0703H55.2185V20.7139H53.429V25.2894H51.5145V20.7139H49.7422Z" fill="#B85E65"/>
<path d="M57.5167 25.2894H55.8867V19.0703H57.7392V22.1621L60.1437 19.0703H61.7197V25.2894H59.8852V22.2243L57.5167 25.2894Z" fill="#B85E65"/>
</g>
<defs>
<clipPath id="clip0_23_1206">
<rect width="100" height="35" fill="white" transform="translate(0.519531)"/>
</clipPath>
</defs>
</svg>
