<svg width="34" height="35" viewBox="0 0 34 35" fill="none" xmlns="http://www.w3.org/2000/svg">
<path d="M17.1366 31.0625C8.79886 31.0625 2.01562 24.2796 2.01562 15.9418C2.01562 7.60407 8.79886 0.820696 17.1366 0.820696C25.4743 0.820696 32.2575 7.60407 32.2575 15.9418C32.2575 24.2796 25.4743 31.0625 17.1366 31.0625Z" fill="#A91545"/>
<path d="M17.1367 -0.000218455C14.9854 -0.000218455 12.8975 0.421352 10.931 1.25328C9.03262 2.05627 7.32786 3.20543 5.86439 4.66902C4.40092 6.13237 3.25165 7.83708 2.4487 9.73578C1.61703 11.7021 1.19531 13.79 1.19531 15.9414C1.19531 18.0926 1.61703 20.1805 2.4487 22.147C3.25165 24.0455 4.40092 25.75 5.86439 27.2136C7.32786 28.6769 9.03262 29.8264 10.931 30.6293C12.8975 31.461 14.9854 31.8828 17.1367 31.8828C19.2882 31.8828 21.376 31.461 23.3423 30.6293C25.2408 29.8264 26.9455 28.6769 28.4091 27.2136C29.8725 25.75 31.0219 24.0455 31.8248 22.147C32.6565 20.1805 33.0781 18.0926 33.0781 15.9414C33.0781 13.79 32.6565 11.7021 31.8248 9.73578C31.0219 7.83708 29.8725 6.13237 28.4091 4.66902C26.9455 3.20543 25.2408 2.05627 23.3423 1.25328C21.376 0.421352 19.2882 -0.000218455 17.1367 -0.000218455ZM17.1367 1.64101C25.0345 1.64101 31.4371 8.04343 31.4371 15.9414C31.4371 23.8392 25.0345 30.2416 17.1367 30.2416C9.23895 30.2416 2.83641 23.8392 2.83641 15.9414C2.83641 8.04343 9.23895 1.64101 17.1367 1.64101Z" fill="white"/>
<path d="M1.34004 34.5894C1.22633 34.5894 1.11537 34.5422 1.03613 34.4549C0.924884 34.3323 0.89826 34.155 0.96847 34.0051L10.9372 12.7452H9.57262C9.46375 12.7452 9.35952 12.702 9.28238 12.625L3.1345 6.47707C3.01706 6.35966 2.98196 6.18319 3.04561 6.02983C3.10896 5.8767 3.25861 5.77656 3.42456 5.77656H21.1022C24.2154 5.77656 26.7287 6.98991 28.1787 9.19346C29.8468 11.7276 29.8825 15.1734 28.2796 18.8961C25.6479 25.0079 19.827 25.6675 17.4465 25.6675H14.8211L12.4456 30.5433C12.3984 30.64 12.3154 30.714 12.2141 30.7499L1.47736 34.566C1.43241 34.5816 1.38608 34.5894 1.34004 34.5894Z" fill="white"/>
<path d="M21.1025 5.36625H3.42478C3.09287 5.36625 2.79371 5.56652 2.66669 5.87301C2.53958 6.17974 2.60979 6.53245 2.8445 6.76727L8.99254 12.9153C9.14647 13.0691 9.35527 13.1556 9.57284 13.1556H10.2918L0.597217 33.8308C0.456522 34.1308 0.510046 34.4855 0.732531 34.7308C0.890916 34.9053 1.11294 35 1.34035 35C1.43236 35 1.52509 34.9846 1.61499 34.9526L12.3517 31.1365C12.5543 31.0649 12.7205 30.9162 12.8147 30.7229L15.0779 26.078H17.4467C18.7913 26.078 20.8324 25.8829 22.9201 24.9531C25.5459 23.7838 27.4759 21.8007 28.6568 19.0584C30.316 15.2049 30.2681 11.6211 28.5219 8.96802C26.9931 6.64543 24.3582 5.36625 21.1025 5.36625ZM21.1025 6.18697C24.0732 6.18697 26.4644 7.33497 27.8363 9.419C29.4259 11.834 29.4495 15.1421 27.903 18.7338C25.3676 24.6216 19.746 25.2573 17.4467 25.2573H14.5649L12.0769 30.3635L1.34026 34.1793L11.5829 12.3349H9.57284L3.42478 6.18697H21.1025Z" fill="#171717"/>
<path d="M21.1034 7.65117C15.5916 7.65117 6.96101 7.65117 6.96101 7.65117L10.1803 10.8706H13.8879L11.8824 14.9825L17.4144 11.1547C18.0759 11.1617 19.4171 11.1666 19.9205 11.1666C21.8608 11.1666 24.1778 12.7731 22.8731 16.397C21.8608 19.2091 19.6111 20.1653 17.8676 20.1653C16.6941 20.1653 15.8537 20.1653 15.4285 20.1653L19.1224 12.6252L10.5463 18.5582L4.15625 31.6245L11.0235 29.1841L13.8635 23.3554L14.3079 23.7929C15.305 23.7929 16.8126 23.7929 17.4476 23.7929C20.2639 23.7929 24.5498 22.8203 26.559 18.1547C29.1442 12.1506 26.6152 7.65117 21.1034 7.65117Z" fill="#171717"/>
</svg>
