<svg width="47" height="49" viewBox="0 0 47 49" fill="none" xmlns="http://www.w3.org/2000/svg">
<path d="M21.1819 40.5729V8.97295C21.1819 5.97295 19.9495 4.77295 16.8878 4.77295H9.1085C6.04683 4.77295 4.81445 5.97295 4.81445 8.97295V40.5729C4.81445 43.5729 6.04683 44.7729 9.1085 44.7729H16.8878C19.9495 44.7729 21.1819 43.5729 21.1819 40.5729Z" fill="#69B6E1"/>
<path d="M41.4006 22.5729V8.97295C41.4006 5.97295 40.1683 4.77295 37.1066 4.77295H29.3272C26.2656 4.77295 25.0332 5.97295 25.0332 8.97295V22.5729C25.0332 25.5729 26.2656 26.7729 29.3272 26.7729H37.1066C40.1683 26.7729 41.4006 25.5729 41.4006 22.5729Z" fill="#69B6E1"/>
<path d="M41.4006 40.5729V34.9729C41.4006 31.9729 40.1683 30.7729 37.1066 30.7729H29.3272C26.2656 30.7729 25.0332 31.9729 25.0332 34.9729V40.5729C25.0332 43.5729 26.2656 44.7729 29.3272 44.7729H37.1066C40.1683 44.7729 41.4006 43.5729 41.4006 40.5729Z" fill="#69B6E1"/>
</svg>
