<svg width="48" height="48" viewBox="0 0 48 48" fill="none" xmlns="http://www.w3.org/2000/svg">
<path d="M33.2988 9.58H32.7388C32.5388 8 31.9588 6.74 31.0388 5.8C29.8388 4.6 28.0988 4 25.8588 4H14.6988C10.1988 4 7.71875 6.48 7.71875 10.98C7.71875 13.22 8.31875 14.96 9.51875 16.16C10.7187 17.36 12.4588 17.96 14.6988 17.96H25.8588C29.8588 17.96 32.2588 15.98 32.7388 12.38H33.2988C37.4788 12.38 37.4788 12.94 37.4788 16.56V20.28C37.4788 23.9 37.4788 24.46 33.2988 24.46H25.8588C19.8788 24.46 19.0188 27.3 18.8988 30.06C17.0988 30.18 15.1588 31.02 15.1588 34.22V39.8C15.1588 43.26 17.4388 43.98 19.3388 43.98H21.1988C23.0988 43.98 25.3788 43.26 25.3788 39.8V34.22C25.3788 31.06 23.4788 30.18 21.6788 30.06C21.7788 28.04 22.3588 27.24 25.8388 27.24H33.2788C39.7788 27.24 40.2588 24.6 40.2588 20.26V16.56C40.2788 12.22 39.7988 9.58 33.2988 9.58Z" fill="#A978E7"/>
</svg>
