<svg width="48" height="48" viewBox="0 0 48 48" fill="none" xmlns="http://www.w3.org/2000/svg">
<path d="M24 4C12.96 4 4 12.96 4 24C4 35.04 12.96 44 24 44C35.04 44 44 35.04 44 24C44 12.96 35.04 4 24 4ZM17.06 26.94C17.64 27.52 17.64 28.48 17.06 29.06C16.76 29.36 16.38 29.5 16 29.5C15.62 29.5 15.24 29.36 14.94 29.06L10.94 25.06C10.36 24.48 10.36 23.52 10.94 22.94L14.94 18.94C15.52 18.36 16.48 18.36 17.06 18.94C17.64 19.52 17.64 20.48 17.06 21.06L14.12 24L17.06 26.94ZM27.38 19.92L23.38 29.26C23.14 29.82 22.58 30.16 22 30.16C21.8 30.16 21.6 30.12 21.42 30.04C20.66 29.72 20.3 28.84 20.64 28.06L24.64 18.72C24.96 17.96 25.84 17.6 26.6 17.94C27.36 18.28 27.7 19.16 27.38 19.92ZM37.06 25.06L33.06 29.06C32.76 29.36 32.38 29.5 32 29.5C31.62 29.5 31.24 29.36 30.94 29.06C30.36 28.48 30.36 27.52 30.94 26.94L33.88 24L30.94 21.06C30.36 20.48 30.36 19.52 30.94 18.94C31.52 18.36 32.48 18.36 33.06 18.94L37.06 22.94C37.64 23.52 37.64 24.48 37.06 25.06Z" fill="#EF7979"/>
</svg>
