<svg width="48" height="48" viewBox="0 0 48 48" fill="none" xmlns="http://www.w3.org/2000/svg">
<path d="M32.38 4H15.62C8.34 4 4 8.34 4 15.62V32.36C4 39.66 8.34 44 15.62 44H32.36C39.64 44 43.98 39.66 43.98 32.38V15.62C44 8.34 39.66 4 32.38 4ZM18.22 33.8C18.22 34.36 17.78 34.8 17.22 34.8H11.64C11.08 34.8 10.64 34.36 10.64 33.8V24.56C10.64 23.3 11.66 22.28 12.92 22.28H17.22C17.78 22.28 18.22 22.72 18.22 23.28V33.8ZM27.78 33.8C27.78 34.36 27.34 34.8 26.78 34.8H21.2C20.64 34.8 20.2 34.36 20.2 33.8V15.48C20.2 14.22 21.22 13.2 22.48 13.2H25.52C26.78 13.2 27.8 14.22 27.8 15.48V33.8H27.78ZM37.36 33.8C37.36 34.36 36.92 34.8 36.36 34.8H30.78C30.22 34.8 29.78 34.36 29.78 33.8V26.7C29.78 26.14 30.22 25.7 30.78 25.7H35.08C36.34 25.7 37.36 26.72 37.36 27.98V33.8Z" fill="#69B6E1"/>
</svg>
