<svg width="48" height="48" viewBox="0 0 48 48" fill="none" xmlns="http://www.w3.org/2000/svg">
<path d="M34 4.85986H14C8 4.85986 4 8.85986 4 14.8599V26.8598C4 32.8598 8 36.8598 14 36.8598V41.1198C14 42.7198 15.78 43.6798 17.1 42.7798L26 36.8598H34C40 36.8598 44 32.8598 44 26.8598V14.8599C44 8.85986 40 4.85986 34 4.85986ZM24 29.1998C23.16 29.1998 22.5 28.5198 22.5 27.6998C22.5 26.8798 23.16 26.1998 24 26.1998C24.84 26.1998 25.5 26.8798 25.5 27.6998C25.5 28.5198 24.84 29.1998 24 29.1998ZM26.52 20.8998C25.74 21.4198 25.5 21.7598 25.5 22.3198V22.7398C25.5 23.5598 24.82 24.2398 24 24.2398C23.18 24.2398 22.5 23.5598 22.5 22.7398V22.3198C22.5 19.9999 24.2 18.8599 24.84 18.4199C25.58 17.9199 25.82 17.5799 25.82 17.0599C25.82 16.0599 25 15.2399 24 15.2399C23 15.2399 22.18 16.0599 22.18 17.0599C22.18 17.8799 21.5 18.5599 20.68 18.5599C19.86 18.5599 19.18 17.8799 19.18 17.0599C19.18 14.3999 21.34 12.2399 24 12.2399C26.66 12.2399 28.82 14.3999 28.82 17.0599C28.82 19.3399 27.14 20.4798 26.52 20.8998Z" fill="#89A0D9"/>
</svg>
